<?xml version="1.0" encoding="UTF-8" standalone="no"?>
<svg
   xmlns:dc="http://purl.org/dc/elements/1.1/"
   xmlns:cc="http://creativecommons.org/ns#"
   xmlns:rdf="http://www.w3.org/1999/02/22-rdf-syntax-ns#"
   xmlns:svg="http://www.w3.org/2000/svg"
   xmlns="http://www.w3.org/2000/svg"
   xmlns:sodipodi="http://sodipodi.sourceforge.net/DTD/sodipodi-0.dtd"
   xmlns:inkscape="http://www.inkscape.org/namespaces/inkscape"
   version="1.1"
   id="svg873"
   width="965"
   height="657"
   viewBox="0 0 965 657"
   sodipodi:docname="MapBorder.svg"
   inkscape:version="1.0.1 (3bc2e813f5, 2020-09-07)">
  <metadata
     id="metadata879">
    <rdf:RDF>
      <cc:Work
         rdf:about="">
        <dc:format>image/svg+xml</dc:format>
        <dc:type
           rdf:resource="http://purl.org/dc/dcmitype/StillImage" />
        <dc:title></dc:title>
      </cc:Work>
    </rdf:RDF>
  </metadata>
  <defs
     id="defs877" />
  <sodipodi:namedview
     pagecolor="#ffffff"
     bordercolor="#666666"
     borderopacity="1"
     objecttolerance="10"
     gridtolerance="10"
     guidetolerance="10"
     inkscape:pageopacity="0"
     inkscape:pageshadow="2"
     inkscape:window-width="1920"
     inkscape:window-height="1017"
     id="namedview875"
     showgrid="false"
     inkscape:zoom="0.79105553"
     inkscape:cx="556.66736"
     inkscape:cy="89.620099"
     inkscape:window-x="-8"
     inkscape:window-y="-8"
     inkscape:window-maximized="1"
     inkscape:current-layer="g881" />
  <g
     inkscape:groupmode="layer"
     inkscape:label="Image"
     id="g881">
    <path
       style="fill:none;stroke:#000000;stroke-width:1px;stroke-linecap:butt;stroke-linejoin:miter;stroke-opacity:1"
       d="m 61.942554,31.28731 -0.632067,8.532903 0.316034,11.377204 -8.21687,7.584803 -20.542173,21.17424 -8.848937,10.11307 -0.632067,13.2734 1.264134,20.22614 v 2.84431 l 19.27804,18.0139 -0.316033,19.91011 24.334574,23.70251 52.461551,53.09361 0.9481,3.47637 -50.249316,49.93329 -29.075077,0.63206 -2.844301,3.16034 -1.264133,2.52826 v 60.99446 l 17.381839,18.32994 -25.282675,23.70251 -0.948101,4.10843 1.896201,3.16033 74.899923,74.26786 -0.31603,21.80631 15.80167,15.1696 0.31603,7.58481 0.63207,1.58016 -1.58017,3.79241 -6.6367,7.90083 -0.63207,49.61725 -2.21223,3.16034 -1.58017,2.21223 0.63207,4.10844 3.47637,1.58016 2.8443,1.26414 28.44301,-0.63207 20.54217,-19.27804 92.28177,0.31603 2.21223,-0.9481 21.80631,-21.49027 64.47082,-0.63207 33.49954,30.33921 5.68861,1.58017 35.39574,-1.8962 3.16034,-0.31603 26.23077,27.4949 4.42447,2.21224 h 5.37257 5.05653 l 2.21224,-1.58017 15.48564,-15.48564 82.80076,0.9481 5.37256,-4.10843 17.38184,-16.74977 0.9481,-25.59871 -17.69787,-18.32994 v -14.53754 l 2.21224,-1.8962 41.40038,0.31603 44.87674,-45.50881 36.02782,-0.63207 22.43837,-21.80631 38.55608,-0.63206 h 2.21223 l 28.75905,30.33921 3.47637,0.9481 h 4.42446 l 3.7924,-2.8443 7.26877,-8.21687 58.46619,0.31603 3.16033,-2.21223 0.31604,-3.79241 v -1.8962 l -44.87675,-45.19278 -1.58017,-3.16033 1.26414,-12.64134 -20.22614,-22.43837 -26.54681,-1.58017 -2.8443,-1.58017 -0.31604,-1.58017 0.63207,-3.47636 3.16033,-4.42447 41.08435,-40.45228 18.64597,0.63206 4.10844,-1.26413 1.8962,-1.58017 0.9481,-3.47636 v -96.07417 l 33.18351,-33.81558 45.50882,-0.31603 h 2.21223 l 6.95274,-6.6367 12.3253,-12.00927 2.21223,-3.16034 -1.26413,-52.14552 -2.21223,-2.52826 -1.8962,-0.9481 h -50.56535 -2.84431 l -40.45228,-40.768317 -2.21223,0.316033 H 818.21057 L 803.357,66.050989 l -35.71178,0.632067 -24.33457,-24.018542 -58.78222,-1.264133 -3.47637,1.580167 -12.95737,13.589438 -5.6886,6.004635 -77.42819,0.316033 -2.84431,1.264134 -88.80539,90.385562 -3.7924,2.21224 -4.7405,0.31603 -1.58017,-1.8962 -22.43838,-23.07044 -2.52826,-1.8962 -96.70624,0.9481 -1.8962,-0.63207 -0.9481,-2.21223 -10.74513,-11.37721 -2.21224,-0.9481 -2.52827,0.9481 -16.43373,14.85357 -54.35776,0.31604 -19.59407,-20.54218 -1.8962,-1.26413 -47.08898,0.9481 -10.11307,-11.377203 -39.82022,0.316033 -11.3772,9.481 -0.31603,0.63207 -28.44301,1.26413 -5.05654,-2.52826 -18.013903,-21.174244 v -1.896201 l 16.749773,-18.013906 8.84894,0.316034 h 2.8443 l 7.26877,-6.952736 0.9481,-2.844301 0.31603,-2.212234 -1.8962,-2.212234 -1.26413,-1.896201 -2.21224,-3.476367 -3.47637,-1.896201 -4.10843,-0.632067 -7.26877,0.316034 -6.00464,0.316033 -30.339206,-29.39111 -2.528268,-1.580167 -3.160334,0.9481 -2.528268,1.896201 -0.632066,3.792401 z"
       id="path1446" />
  </g>
</svg>
