<?xml version="1.0" encoding="UTF-8" standalone="no"?>
<!-- Created with Inkscape (http://www.inkscape.org/) -->

<svg
   version="1.1"
   id="svg1"
   width="965"
   height="657"
   viewBox="0 0 965 657"
   sodipodi:docname="MapCC.svg"
   xml:space="preserve"
   inkscape:version="1.3.2 (091e20e, 2023-11-25, custom)"
   xmlns:inkscape="http://www.inkscape.org/namespaces/inkscape"
   xmlns:sodipodi="http://sodipodi.sourceforge.net/DTD/sodipodi-0.dtd"
   xmlns="http://www.w3.org/2000/svg"
   xmlns:svg="http://www.w3.org/2000/svg"><defs
     id="defs1" /><sodipodi:namedview
     id="namedview1"
     pagecolor="#ffffff"
     bordercolor="#000000"
     borderopacity="0.25"
     inkscape:showpageshadow="2"
     inkscape:pageopacity="0.0"
     inkscape:pagecheckerboard="0"
     inkscape:deskcolor="#d1d1d1"
     showgrid="false"
     inkscape:zoom="0.96410461"
     inkscape:cx="405.55765"
     inkscape:cy="254.64042"
     inkscape:window-width="1920"
     inkscape:window-height="991"
     inkscape:window-x="-9"
     inkscape:window-y="-9"
     inkscape:window-maximized="1"
     inkscape:current-layer="g1" /><g
     inkscape:groupmode="layer"
     inkscape:label="Image"
     id="g1"><g
       id="g1692"
       transform="translate(-0.55678256,-1.2030337)" /><g
       id="g3"
       transform="translate(-204.33467,206.40914)"><text
         xml:space="preserve"
         style="font-style:normal;font-weight:normal;font-size:19.0475px;line-height:1.25;font-family:sans-serif;fill:#000000;fill-opacity:1;stroke:none;stroke-width:0.476187"
         x="667.81091"
         y="87.9067"
         id="text1480-4"
         transform="translate(-0.55678256,-1.2030337)"><tspan
           sodipodi:role="line"
           id="tspan1478-3"
           x="667.81091"
           y="87.9067"
           style="font-style:normal;font-variant:normal;font-weight:normal;font-stretch:normal;font-size:18.6667px;font-family:'Cascadia Code';-inkscape-font-specification:'Cascadia Code, @wght=400';font-variant-ligatures:normal;font-variant-caps:normal;font-variant-numeric:normal;font-variant-east-asian:normal;font-variation-settings:'wght' 400;stroke-width:0.476187">Силистра</tspan></text><g
         id="g1503"
         transform="matrix(0.06007402,0,0,0.06135637,716.80811,98.317945)"><ellipse
           style="font-variation-settings:'wght' 400;fill:#f5f4ef;stroke:#000000;stroke-width:2.94438;stroke-linecap:square;paint-order:markers fill stroke"
           id="path1494"
           cx="384.85666"
           cy="249.82738"
           rx="151.94472"
           ry="152.78165" /><text
           xml:space="preserve"
           style="font-style:normal;font-variant:normal;font-weight:normal;font-stretch:normal;font-size:192px;line-height:1.25;font-family:sans-serif;-inkscape-font-specification:'sans-serif, Normal';font-variant-ligatures:normal;font-variant-caps:normal;font-variant-numeric:normal;font-variant-east-asian:normal;fill:#000000;fill-opacity:1;stroke:none"
           x="322.11462"
           y="319.48364"
           id="text1498"><tspan
             sodipodi:role="line"
             id="tspan1496"
             x="322.11462"
             y="319.48364">4</tspan></text></g><path
         style="fill:none;fill-opacity:1;stroke:#000000;stroke-opacity:1"
         d="m 616.20174,63.416988 -0.21139,8.878379 v 7.398649 l 2.23939,2.517385 h 10.91169 1.04633 l 5.68006,5.829536 0.5979,1.195802 9.26747,-0.597901 2.54108,3.138981 5.23163,5.231635 5.38111,4.334786 c 0,0 0.44843,2.09265 1.34528,2.09265 0.89685,0 23.16867,0.5979 23.16867,0.5979 l 24.06552,23.6171 2.9895,2.09265 14.79806,0.29895 1.1958,0.14947 6.72639,5.82954 3.13898,1.7937 h 1.94318 l 1.94317,-1.94317 2.39161,-1.34528 0.89685,-1.34528 0.44843,-1.49475 0.14947,-2.24213 v -2.39161 l 0.44843,-1.94317 8.66956,-8.96852 17.48861,-17.638084 1.04633,-1.046326 1.1958,-0.747377 h 0.89685 2.98951 l 1.34527,1.644228 1.64423,1.644228 1.49475,0.597901 2.24213,1.7937 2.54108,0.29895 28.40031,-28.101348 -7.62324,-8.22114 -1.49476,-0.597901 -2.69055,-0.448426 h -4.33478 -4.78321 l -22.27182,0.149476 h -1.34528 l -2.9895,-2.690555 -21.22549,-20.478113 -0.74738,-1.195802 -0.89685,-0.597901 h -1.34528 l -58.89326,-0.747377 h -1.34527 l -1.1958,0.448426 -1.34528,1.345278 -20.02969,20.029686 -0.44843,0.747377 -43.19835,-0.149475 z"
         id="path3" /></g></g></svg>
