<?xml version="1.0" encoding="UTF-8" standalone="no"?>
<!-- Created with Inkscape (http://www.inkscape.org/) -->

<svg
   version="1.1"
   id="svg1"
   width="965"
   height="657"
   viewBox="0 0 965 657"
   sodipodi:docname="MapЕВ.svg"
   xml:space="preserve"
   inkscape:version="1.3.2 (091e20e, 2023-11-25, custom)"
   xmlns:inkscape="http://www.inkscape.org/namespaces/inkscape"
   xmlns:sodipodi="http://sodipodi.sourceforge.net/DTD/sodipodi-0.dtd"
   xmlns="http://www.w3.org/2000/svg"
   xmlns:svg="http://www.w3.org/2000/svg"><defs
     id="defs1" /><sodipodi:namedview
     id="namedview1"
     pagecolor="#ffffff"
     bordercolor="#000000"
     borderopacity="0.25"
     inkscape:showpageshadow="2"
     inkscape:pageopacity="0.0"
     inkscape:pagecheckerboard="0"
     inkscape:deskcolor="#d1d1d1"
     showgrid="false"
     inkscape:zoom="1.3634498"
     inkscape:cx="503.86893"
     inkscape:cy="292.27332"
     inkscape:window-width="1920"
     inkscape:window-height="991"
     inkscape:window-x="-9"
     inkscape:window-y="-9"
     inkscape:window-maximized="1"
     inkscape:current-layer="g10" /><g
     inkscape:groupmode="layer"
     inkscape:label="Image"
     id="g1"><g
       id="g10"><g
         id="g11"
         transform="translate(18.635711,14.608917)"><g
           id="g1503-6-2-2-1-4"
           transform="matrix(0.06007402,0,0,0.06135637,466.82402,290.50958)"><ellipse
             style="font-variation-settings:'wght' 400;fill:#f5f4ef;stroke:#000000;stroke-width:2.94438;stroke-linecap:square;paint-order:markers fill stroke"
             id="path1494-2-0-3-4-1"
             cx="384.85666"
             cy="249.82738"
             rx="151.94472"
             ry="152.78165" /><text
             xml:space="preserve"
             style="font-style:normal;font-variant:normal;font-weight:normal;font-stretch:normal;font-size:192px;line-height:1.25;font-family:sans-serif;-inkscape-font-specification:'sans-serif, Normal';font-variant-ligatures:normal;font-variant-caps:normal;font-variant-numeric:normal;font-variant-east-asian:normal;fill:#000000;fill-opacity:1;stroke:none"
             x="323.28903"
             y="328.66125"
             id="text1498-5-4-3-5-5"><tspan
               sodipodi:role="line"
               id="tspan1496-1-2-7-2-8"
               x="323.28903"
               y="328.66125">4</tspan></text></g><text
           xml:space="preserve"
           style="font-style:normal;font-weight:normal;font-size:17.8268px;line-height:1.25;font-family:sans-serif;fill:#000000;fill-opacity:1;stroke:none;stroke-width:0.44567"
           x="395.98618"
           y="298.48907"
           id="text1480-4-6-0-8-1-8"
           transform="scale(1.0454977,0.95648225)"><tspan
             sodipodi:role="line"
             x="395.98618"
             y="298.48907"
             style="font-style:normal;font-variant:normal;font-weight:normal;font-stretch:normal;font-size:17.4704px;font-family:'Cascadia Code';-inkscape-font-specification:'Cascadia Code, @wght=400';font-variant-ligatures:normal;font-variant-caps:normal;font-variant-numeric:normal;font-variant-east-asian:normal;font-variation-settings:'wght' 400;stroke-width:0.44567"
             id="tspan9-2">Габрово</tspan></text><path
           style="fill:none;fill-opacity:1;stroke:#000000;stroke-opacity:1"
           d="m 499.28497,318.86029 -81.77785,0.36672 0.0917,-9.80968 -0.82512,-1.19183 -17.14401,-17.87744 -0.18336,-17.32738 0.64176,-1.10015 10.81815,-11.27654 0.82511,-0.64175 0.0917,-21.6363 0.91679,-1.37518 1.37519,-1.37519 1.19183,-1.10015 h 1.7419 l 9.62632,-0.4584 0.73343,1.19183 14.66868,14.48532 2.01694,1.37518 1.28351,0.0917 13.11012,-0.27503 1.10016,0.91679 1.00847,1.28351 0.64175,0.82511 -0.18336,4.03388 0.70791,1.45233 1.03723,1.03723 0.77793,0.38896 1.75033,0.25931 7.64958,0.12965 15.62331,-0.0648 0.64827,0.12966 0.71309,0.45379 8.75165,8.29785 0.77792,1.6855 0.25931,1.71792 -3.66273,4.14893 -0.2593,0.51861 0.16206,1.1993 -0.71309,1.23171 0.22689,5.80202 0.32414,1.36137 1.03723,1.32895 6.35304,2.10688 1.03724,1.16688 0.64827,22.36532 -1.49103,0.81033 -1.78274,1.97723 z"
           id="path10" /></g></g></g></svg>
