<?xml version="1.0" encoding="UTF-8" standalone="no"?>
<!-- Created with Inkscape (http://www.inkscape.org/) -->

<svg
   version="1.1"
   id="svg1"
   width="965"
   height="657"
   viewBox="0 0 965 657"
   sodipodi:docname="MapК.svg"
   xml:space="preserve"
   inkscape:version="1.3.2 (091e20e, 2023-11-25, custom)"
   xmlns:inkscape="http://www.inkscape.org/namespaces/inkscape"
   xmlns:sodipodi="http://sodipodi.sourceforge.net/DTD/sodipodi-0.dtd"
   xmlns="http://www.w3.org/2000/svg"
   xmlns:svg="http://www.w3.org/2000/svg"><defs
     id="defs1" /><sodipodi:namedview
     id="namedview1"
     pagecolor="#ffffff"
     bordercolor="#000000"
     borderopacity="0.25"
     inkscape:showpageshadow="2"
     inkscape:pageopacity="0.0"
     inkscape:pagecheckerboard="0"
     inkscape:deskcolor="#d1d1d1"
     showgrid="false"
     inkscape:zoom="0.96410461"
     inkscape:cx="517.57869"
     inkscape:cy="448.60277"
     inkscape:window-width="1920"
     inkscape:window-height="991"
     inkscape:window-x="-9"
     inkscape:window-y="-9"
     inkscape:window-maximized="1"
     inkscape:current-layer="g1" /><g
     inkscape:groupmode="layer"
     inkscape:label="Image"
     id="g1"><g
       id="g12"
       transform="translate(-13.48401,-216.78146)"><g
         id="g1503-6-2-2-1-1-9"
         transform="matrix(0.06007402,0,0,0.06135637,503.28132,578.02425)"><ellipse
           style="font-variation-settings:'wght' 400;fill:#f5f4ef;stroke:#000000;stroke-width:2.94438;stroke-linecap:square;paint-order:markers fill stroke"
           id="path1494-2-0-3-4-6-2"
           cx="384.85666"
           cy="249.82738"
           rx="151.94472"
           ry="152.78165" /><text
           xml:space="preserve"
           style="font-style:normal;font-variant:normal;font-weight:normal;font-stretch:normal;font-size:192px;line-height:1.25;font-family:sans-serif;-inkscape-font-specification:'sans-serif, Normal';font-variant-ligatures:normal;font-variant-caps:normal;font-variant-numeric:normal;font-variant-east-asian:normal;fill:#000000;fill-opacity:1;stroke:none"
           x="322.11462"
           y="319.48364"
           id="text1498-5-4-3-5-2-6"><tspan
             sodipodi:role="line"
             id="tspan1496-1-2-7-2-7-3"
             x="322.11462"
             y="319.48364">5</tspan></text></g><text
         xml:space="preserve"
         style="font-style:normal;font-weight:normal;font-size:17.8268px;line-height:1.25;font-family:sans-serif;fill:#000000;fill-opacity:1;stroke:none;stroke-width:0.44567"
         x="417.60757"
         y="585.5741"
         id="text1480-4-6-0-8-11-3"
         transform="scale(1.0454977,0.95648225)"><tspan
           sodipodi:role="line"
           x="417.60757"
           y="585.5741"
           style="font-style:normal;font-variant:normal;font-weight:normal;font-stretch:normal;font-size:17.4704px;font-family:'Cascadia Code';-inkscape-font-specification:'Cascadia Code, @wght=400';font-variant-ligatures:normal;font-variant-caps:normal;font-variant-numeric:normal;font-variant-east-asian:normal;font-variation-settings:'wght' 400;stroke-width:0.44567"
           id="tspan8-3-2">Кърджали</tspan></text><path
         style="fill:none;fill-opacity:1;stroke:#000000;stroke-opacity:1"
         d="m 459.22116,482.04928 -30.98757,30.52918 c 0,0 0,31.35429 0,31.81268 0,0.4584 -0.64176,2.10863 -0.64176,2.10863 l -1.10015,1.00847 -1.00847,1.00847 -1.55855,0.55007 -5.86747,0.0917 h -0.64175 l -1.19183,0.73344 -1.19183,1.00847 -0.55008,0.64175 -0.36671,1.55855 -0.0917,13.75188 0.36672,1.19183 0.91679,0.91679 0.82511,0.91679 1.00847,0.64176 h 1.28351 l 14.1186,0.27504 1.55855,0.27503 1.55854,0.64176 0.73344,0.55007 1.10015,1.10015 0.0917,0.82512 0.36672,0.91679 -0.18336,33.73795 9.80968,9.99303 1.19183,1.19183 2.2003,1.28351 2.56702,0.64175 2.75037,0.27504 h 2.84206 l 4.67564,-0.18336 1.83358,-0.36671 1.92527,-1.10015 13.01844,-13.11013 1.19183,-1.00847 1.37519,-0.4584 1.65023,-0.0917 71.8765,-0.27503 -16.31078,-16.58241 -0.58344,-0.58344 -0.74551,-0.55103 -1.4262,-2.04205 0.51862,-35.46037 -0.61586,-2.13929 -2.30136,-2.00963 -0.90757,-0.61586 -0.77793,-0.29172 -19.73982,-0.16207 -1.39378,-0.38896 -2.1717,-2.46343 -0.81034,-2.56066 0.0324,-15.42883 -0.16206,-0.35655 -2.00964,-2.62549 -1.58826,-0.81034 -1.10206,-0.35654 -27.1301,0.0324 -10.59921,-10.43715 -7.30953,-7.12235 z"
         id="path12" /></g></g></svg>
