<?xml version="1.0" encoding="UTF-8" standalone="no"?>
<!-- Created with Inkscape (http://www.inkscape.org/) -->

<svg
   version="1.1"
   id="svg1"
   width="965"
   height="657"
   viewBox="0 0 965 657"
   sodipodi:docname="MapВТ.svg"
   xml:space="preserve"
   inkscape:version="1.3.2 (091e20e, 2023-11-25, custom)"
   xmlns:inkscape="http://www.inkscape.org/namespaces/inkscape"
   xmlns:sodipodi="http://sodipodi.sourceforge.net/DTD/sodipodi-0.dtd"
   xmlns="http://www.w3.org/2000/svg"
   xmlns:svg="http://www.w3.org/2000/svg"><defs
     id="defs1" /><sodipodi:namedview
     id="namedview1"
     pagecolor="#ffffff"
     bordercolor="#000000"
     borderopacity="0.25"
     inkscape:showpageshadow="2"
     inkscape:pageopacity="0.0"
     inkscape:pagecheckerboard="0"
     inkscape:deskcolor="#d1d1d1"
     showgrid="false"
     inkscape:zoom="0.68172491"
     inkscape:cx="385.78611"
     inkscape:cy="288.23943"
     inkscape:window-width="1920"
     inkscape:window-height="991"
     inkscape:window-x="-9"
     inkscape:window-y="-9"
     inkscape:window-maximized="1"
     inkscape:current-layer="g1" /><g
     inkscape:groupmode="layer"
     inkscape:label="Image"
     id="g1"><g
       id="g9"
       transform="translate(-8.8012041,108.54818)"><g
         id="g1503-6-2-2-1-4"
         transform="matrix(0.06007402,0,0,0.06135637,537.09648,273.13595)"><ellipse
           style="font-variation-settings:'wght' 400;fill:#f5f4ef;stroke:#000000;stroke-width:2.94438;stroke-linecap:square;paint-order:markers fill stroke"
           id="path1494-2-0-3-4-1"
           cx="384.85666"
           cy="249.82738"
           rx="151.94472"
           ry="152.78165" /><text
           xml:space="preserve"
           style="font-style:normal;font-variant:normal;font-weight:normal;font-stretch:normal;font-size:192px;line-height:1.25;font-family:sans-serif;-inkscape-font-specification:'sans-serif, Normal';font-variant-ligatures:normal;font-variant-caps:normal;font-variant-numeric:normal;font-variant-east-asian:normal;fill:#000000;fill-opacity:1;stroke:none"
           x="318.97256"
           y="315.98248"
           id="text1498-5-4-3-5-5"><tspan
             sodipodi:role="line"
             id="tspan1496-1-2-7-2-8"
             x="318.97256"
             y="315.98248">8</tspan></text></g><text
         xml:space="preserve"
         style="font-style:normal;font-weight:normal;font-size:17.8268px;line-height:1.25;font-family:sans-serif;fill:#000000;fill-opacity:1;stroke:none;stroke-width:0.44567"
         x="451.32474"
         y="237.15517"
         id="text1480-4-6-0-8-1"
         transform="scale(1.0454977,0.95648225)"><tspan
           sodipodi:role="line"
           x="451.32474"
           y="237.15517"
           style="font-style:normal;font-variant:normal;font-weight:normal;font-stretch:normal;font-size:17.4704px;font-family:'Cascadia Code';-inkscape-font-specification:'Cascadia Code, @wght=400';font-variant-ligatures:normal;font-variant-caps:normal;font-variant-numeric:normal;font-variant-east-asian:normal;font-variation-settings:'wght' 400;stroke-width:0.44567"
           id="tspan8-8">Велико</tspan><tspan
           sodipodi:role="line"
           x="451.32474"
           y="259.43866"
           style="font-style:normal;font-variant:normal;font-weight:normal;font-stretch:normal;font-size:17.4704px;font-family:'Cascadia Code';-inkscape-font-specification:'Cascadia Code, @wght=400';font-variant-ligatures:normal;font-variant-caps:normal;font-variant-numeric:normal;font-variant-east-asian:normal;font-variation-settings:'wght' 400;stroke-width:0.44567"
           id="tspan9"> Търново</tspan></text><path
         style="fill:none;fill-opacity:1;stroke:#000000;stroke-opacity:1"
         d="m 462.06321,133.85165 -5.6812,4.6188 -8.81647,8.1682 -1.55585,1.81516 -0.64827,1.94481 -0.38896,2.72273 0.12966,20.35568 v 0.64827 c 0,0 0.64827,0.51861 0,0.77792 -0.64827,0.25931 -1.68551,1.42619 -1.68551,1.42619 l -4.14892,3.75997 -0.64827,1.29654 c 0,0 -0.90758,0.90758 -0.90758,1.42619 0,0.51862 -0.12965,2.07447 -0.12965,2.07447 l 0.51861,1.03723 13.09505,13.2247 0.64827,1.94481 0.64827,1.55585 -1.03723,1.6855 -11.79851,12.18748 0.51861,13.61367 -1.03723,1.16688 -1.42619,1.4262 -2.98204,1.03723 -3.75997,0.25931 -4.01927,0.12965 0.38896,1.03723 14.00263,13.74332 1.94481,1.55585 1.42619,0.77792 13.61367,-0.38896 1.03723,0.64827 1.03724,1.16689 0.51861,0.64827 v 0.90758 l 0.12966,3.75996 0.90757,1.6855 1.03724,1.03724 1.29654,0.51861 h 24.89356 l 0.90758,0.51862 8.81647,8.55716 0.77792,1.94481 v 1.29654 l -0.38896,0.64827 -1.16689,1.29654 -1.16688,1.29654 -1.03723,1.03723 v 1.6855 l -0.77793,1.29654 0.25931,5.44547 0.38896,1.42619 1.16689,1.4262 2.85239,1.03723 3.63031,1.03723 0.90758,1.29654 v 0.90758 l 0.38896,21.00394 2.07446,-0.38896 36.82173,0.12966 h 11.02059 l 2.46343,-0.25931 1.29654,-0.77793 1.03723,-1.55584 28.52387,-28.78319 -14.52124,-13.35436 -0.51862,-2.33377 -0.25931,-31.37626 1.94481,-1.6855 1.16689,-1.03724 1.16688,-0.64827 1.55585,-2.07446 v -1.94481 l 0.30063,-1.96469 -1.37519,-1.74191 -14.39364,-13.98108 -8.75536,-8.93872 -23.46988,-0.55008 -2.93373,-1.37518 z"
         id="path9" /></g></g></svg>
