<?xml version="1.0" encoding="UTF-8" standalone="no"?>
<!-- Created with Inkscape (http://www.inkscape.org/) -->

<svg
   version="1.1"
   id="svg1"
   width="965"
   height="657"
   viewBox="0 0 965 657"
   sodipodi:docname="MapВР.svg"
   xml:space="preserve"
   inkscape:version="1.3.2 (091e20e, 2023-11-25, custom)"
   xmlns:inkscape="http://www.inkscape.org/namespaces/inkscape"
   xmlns:sodipodi="http://sodipodi.sourceforge.net/DTD/sodipodi-0.dtd"
   xmlns="http://www.w3.org/2000/svg"
   xmlns:svg="http://www.w3.org/2000/svg"><defs
     id="defs1" /><sodipodi:namedview
     id="namedview1"
     pagecolor="#ffffff"
     bordercolor="#000000"
     borderopacity="0.25"
     inkscape:showpageshadow="2"
     inkscape:pageopacity="0.0"
     inkscape:pagecheckerboard="0"
     inkscape:deskcolor="#d1d1d1"
     showgrid="false"
     inkscape:zoom="1.3634498"
     inkscape:cx="382.85238"
     inkscape:cy="254.8682"
     inkscape:window-width="1920"
     inkscape:window-height="991"
     inkscape:window-x="-9"
     inkscape:window-y="-9"
     inkscape:window-maximized="1"
     inkscape:current-layer="g1" /><g
     inkscape:groupmode="layer"
     inkscape:label="Image"
     id="g1"><g
       id="g25"
       transform="translate(176.75751,92.412643)"><g
         id="g1503-6-2-2-1-1-9-3-0-1-6-9-3"
         transform="matrix(0.06007402,0,0,0.06135637,232.09648,230.13595)"><ellipse
           style="font-variation-settings:'wght' 400;fill:#f5f4ef;stroke:#000000;stroke-width:2.94438;stroke-linecap:square;paint-order:markers fill stroke"
           id="path1494-2-0-3-4-6-2-9-7-0-0-8-1"
           cx="384.85666"
           cy="249.82738"
           rx="151.94472"
           ry="152.78165" /><text
           xml:space="preserve"
           style="font-style:normal;font-variant:normal;font-weight:normal;font-stretch:normal;font-size:192px;line-height:1.25;font-family:sans-serif;-inkscape-font-specification:'sans-serif, Normal';font-variant-ligatures:normal;font-variant-caps:normal;font-variant-numeric:normal;font-variant-east-asian:normal;fill:#000000;fill-opacity:1;stroke:none"
           x="322.11462"
           y="319.48364"
           id="text1498-5-4-3-5-2-6-7-7-2-7-1-3"><tspan
             sodipodi:role="line"
             id="tspan1496-1-2-7-2-7-3-9-1-8-4-4-5"
             x="322.11462"
             y="319.48364">6</tspan></text></g><text
         xml:space="preserve"
         style="font-style:normal;font-weight:normal;font-size:17.8268px;line-height:1.25;font-family:sans-serif;fill:#000000;fill-opacity:1;stroke:none;stroke-width:0.44567"
         x="191.78584"
         y="203.75346"
         id="text1480-4-6-0-8-11-3-8-0-5-3-4-4-2-1"
         transform="scale(1.0454977,0.95648225)"><tspan
           sodipodi:role="line"
           x="191.78584"
           y="203.75346"
           style="font-style:normal;font-variant:normal;font-weight:normal;font-stretch:normal;font-size:17.4704px;font-family:'Cascadia Code';-inkscape-font-specification:'Cascadia Code, @wght=400';font-variant-ligatures:normal;font-variant-caps:normal;font-variant-numeric:normal;font-variant-east-asian:normal;font-variation-settings:'wght' 400;stroke-width:0.44567"
           id="tspan8-3-2-4-9-3-3-2-5-3-3">Враца</tspan></text><path
         style="fill:none;fill-opacity:1;stroke:#000000;stroke-opacity:1"
         d="m 210.81737,110.27071 0.32414,55.42708 -0.19448,1.03723 -0.12966,0.51862 -0.51861,0.9724 -0.25931,0.25931 -1.16689,0.84275 -0.71309,0.25931 -1.10206,0.2593 -26.44941,0.25931 -1.60434,0.96738 -1.51271,1.55855 -0.91679,1.51271 -0.32088,1.05431 0.55007,37.95519 0.13752,0.82511 6.96762,6.64675 0.73344,0.68759 0.27503,0.59592 0.2292,1.05431 v 2.10862 l -0.96263,1.46687 -10.86399,10.90982 9.58048,-0.41255 1.51271,0.41255 22.23221,22.09469 1.69606,1.28351 2.70454,0.2292 59.08725,0.0917 0.27504,-33.55459 -3.98805,-0.0458 -1.37519,-0.41256 -1.05431,-0.64175 -0.87095,-0.50424 -1.37519,-1.05431 -0.55007,-0.55008 0.13752,-21.13205 0.22919,-1.00847 0.55008,-0.4584 2.93373,-2.38366 0.64176,-0.18336 h 2.75037 l 15.21875,-0.0917 1.92527,-1.00847 14.80619,-14.94371 -0.0458,-4.53812 -7.70105,-7.60938 -0.2292,-1.14599 v -0.50423 l 0.21819,-12.4312 0.25931,-1.10205 1.16689,-1.81516 23.20806,-22.36531 -42.85064,0.38896 -2.72273,-1.03723 -2.98204,-3.50066 -16.91985,-16.53088 -1.23171,-0.58345 c 0,0 -1.29654,-0.58344 -1.55585,-0.58344 -0.25931,0 -38.1831,0.45379 -38.1831,0.45379 z"
         id="path25" /></g></g></svg>
