<?xml version="1.0" encoding="UTF-8" standalone="no"?>
<!-- Created with Inkscape (http://www.inkscape.org/) -->

<svg
   version="1.1"
   id="svg1"
   width="965"
   height="657"
   viewBox="0 0 965 657"
   sodipodi:docname="MapОВ.svg"
   xml:space="preserve"
   inkscape:version="1.3.2 (091e20e, 2023-11-25, custom)"
   xmlns:inkscape="http://www.inkscape.org/namespaces/inkscape"
   xmlns:sodipodi="http://sodipodi.sourceforge.net/DTD/sodipodi-0.dtd"
   xmlns="http://www.w3.org/2000/svg"
   xmlns:svg="http://www.w3.org/2000/svg"><defs
     id="defs1" /><sodipodi:namedview
     id="namedview1"
     pagecolor="#ffffff"
     bordercolor="#000000"
     borderopacity="0.25"
     inkscape:showpageshadow="2"
     inkscape:pageopacity="0.0"
     inkscape:pagecheckerboard="0"
     inkscape:deskcolor="#d1d1d1"
     showgrid="false"
     inkscape:zoom="0.68172491"
     inkscape:cx="181.89155"
     inkscape:cy="498.00146"
     inkscape:window-width="1920"
     inkscape:window-height="991"
     inkscape:window-x="-9"
     inkscape:window-y="-9"
     inkscape:window-maximized="1"
     inkscape:current-layer="g1" /><g
     inkscape:groupmode="layer"
     inkscape:label="Image"
     id="g1"><g
       id="g17"
       transform="translate(112.21535,63.075296)"><path
         style="fill:none;fill-opacity:1;stroke:#000000;stroke-width:1;stroke-opacity:1"
         d="m 270.1989,261.12312 0.2593,-33.96935 88.94263,0.25931 3.1117,-0.25931 h 1.29654 l 15.55848,-16.07709 30.33903,0.25931 9.07578,-10.11301 2.07446,-1.29654 h 2.59308 l 16.59571,16.85502 v 11.66885 l 0.38896,1.81516 -2.59308,2.20412 -1.29654,1.16688 -21.3929,0.90758 -2.59308,3.24135 -0.77793,0.38896 -0.12965,21.91153 -11.79851,11.79851 -0.90758,1.42619 0.25931,16.98467 18.15155,18.92948 -0.12965,9.46474 -3.63031,4.01928 -1.16689,1.16688 -1.42619,0.51862 -2.07446,0.64827 -32.15419,-0.90758 -1.94481,-1.29654 -3.50066,-3.371 -3.88962,-4.40824 -1.81515,-1.6855 -2.07447,-1.42619 -37.34034,-0.51862 -25.50161,0.73885 -1.65023,-0.27504 -2.10862,-0.91679 -1.37519,-1.83359 -1.10015,-2.29198 0.73343,-18.15248 v -1.74191 -1.37518 z"
         id="path17" /><g
         id="g1503-6-2-2-1-4-1"
         transform="matrix(0.06007402,0,0,0.06135637,367.09648,294.13595)"><ellipse
           style="font-variation-settings:'wght' 400;fill:#f5f4ef;stroke:#000000;stroke-width:2.94438;stroke-linecap:square;paint-order:markers fill stroke"
           id="path1494-2-0-3-4-1-1"
           cx="384.85666"
           cy="249.82738"
           rx="151.94472"
           ry="152.78165" /><text
           xml:space="preserve"
           style="font-style:normal;font-variant:normal;font-weight:normal;font-stretch:normal;font-size:192px;line-height:1.25;font-family:sans-serif;-inkscape-font-specification:'sans-serif, Normal';font-variant-ligatures:normal;font-variant-caps:normal;font-variant-numeric:normal;font-variant-east-asian:normal;fill:#000000;fill-opacity:1;stroke:none"
           x="323.28903"
           y="328.66125"
           id="text1498-5-4-3-5-5-0"><tspan
             sodipodi:role="line"
             id="tspan1496-1-2-7-2-8-1"
             x="323.28903"
             y="328.66125">4</tspan></text></g><text
         xml:space="preserve"
         style="font-style:normal;font-weight:normal;font-size:17.8268px;line-height:1.25;font-family:sans-serif;fill:#000000;fill-opacity:1;stroke:none;stroke-width:0.44567"
         x="299.31564"
         y="291.85059"
         id="text1480-4-6-0-8-1-8-8"
         transform="scale(1.0454977,0.95648225)"><tspan
           sodipodi:role="line"
           x="299.31564"
           y="291.85059"
           style="font-style:normal;font-variant:normal;font-weight:normal;font-stretch:normal;font-size:17.4704px;font-family:'Cascadia Code';-inkscape-font-specification:'Cascadia Code, @wght=400';font-variant-ligatures:normal;font-variant-caps:normal;font-variant-numeric:normal;font-variant-east-asian:normal;font-variation-settings:'wght' 400;stroke-width:0.44567"
           id="tspan9-2-9">Ловеч</tspan></text></g></g></svg>
