<?xml version="1.0" encoding="UTF-8" standalone="no"?>
<!-- Created with Inkscape (http://www.inkscape.org/) -->

<svg
   version="1.1"
   id="svg1"
   width="965"
   height="657"
   viewBox="0 0 965 657"
   sodipodi:docname="MapЕН.svg"
   xml:space="preserve"
   inkscape:version="1.3.2 (091e20e, 2023-11-25, custom)"
   xmlns:inkscape="http://www.inkscape.org/namespaces/inkscape"
   xmlns:sodipodi="http://sodipodi.sourceforge.net/DTD/sodipodi-0.dtd"
   xmlns="http://www.w3.org/2000/svg"
   xmlns:svg="http://www.w3.org/2000/svg"><defs
     id="defs1" /><sodipodi:namedview
     id="namedview1"
     pagecolor="#ffffff"
     bordercolor="#000000"
     borderopacity="0.25"
     inkscape:showpageshadow="2"
     inkscape:pageopacity="0.0"
     inkscape:pagecheckerboard="0"
     inkscape:deskcolor="#d1d1d1"
     showgrid="false"
     inkscape:zoom="0.68172491"
     inkscape:cx="548.60839"
     inkscape:cy="364.51653"
     inkscape:window-width="1920"
     inkscape:window-height="991"
     inkscape:window-x="-9"
     inkscape:window-y="-9"
     inkscape:window-maximized="1"
     inkscape:current-layer="g18" /><g
     inkscape:groupmode="layer"
     inkscape:label="Image"
     id="g1"><g
       id="g18"
       transform="translate(-95.713094,-45.106171)"><g
         id="g1503-6-2-2-1-1-0"
         transform="matrix(0.06007402,0,0,0.06135637,578.49029,368.52826)"><ellipse
           style="font-variation-settings:'wght' 400;fill:#f5f4ef;stroke:#000000;stroke-width:2.94438;stroke-linecap:square;paint-order:markers fill stroke"
           id="path1494-2-0-3-4-6-8"
           cx="384.85666"
           cy="249.82738"
           rx="151.94472"
           ry="152.78165" /><text
           xml:space="preserve"
           style="font-style:normal;font-variant:normal;font-weight:normal;font-stretch:normal;font-size:192px;line-height:1.25;font-family:sans-serif;-inkscape-font-specification:'sans-serif, Normal';font-variant-ligatures:normal;font-variant-caps:normal;font-variant-numeric:normal;font-variant-east-asian:normal;fill:#000000;fill-opacity:1;stroke:none"
           x="322.11462"
           y="319.48364"
           id="text1498-5-4-3-5-2-3"><tspan
             sodipodi:role="line"
             id="tspan1496-1-2-7-2-7-33"
             x="322.11462"
             y="319.48364">8</tspan></text></g><text
         xml:space="preserve"
         style="font-style:normal;font-weight:normal;font-size:17.8268px;line-height:1.25;font-family:sans-serif;fill:#000000;fill-opacity:1;stroke:none;stroke-width:0.44567"
         x="508.65265"
         y="369.90625"
         id="text1480-4-6-0-8-1-8-8-5"
         transform="scale(1.0454977,0.95648225)"><tspan
           sodipodi:role="line"
           x="508.65265"
           y="369.90625"
           style="font-style:normal;font-variant:normal;font-weight:normal;font-stretch:normal;font-size:17.4704px;font-family:'Cascadia Code';-inkscape-font-specification:'Cascadia Code, @wght=400';font-variant-ligatures:normal;font-variant-caps:normal;font-variant-numeric:normal;font-variant-east-asian:normal;font-variation-settings:'wght' 400;stroke-width:0.44567"
           id="tspan9-2-9-5">Плевен</tspan></text><path
         style="fill:none;fill-opacity:1;stroke:#000000;stroke-opacity:1"
         d="m 561.44347,412.37309 h -3.85052 -93.32944 l -2.01694,-0.9168 -1.46687,-0.91679 -1.46686,-1.28351 v -1.28351 -20.16942 l 0.73343,-1.10015 1.46687,-1.28351 1.65022,-1.28351 0.91679,-0.18336 h 2.38366 12.83509 2.56702 l 1.83359,-1.10015 13.56852,-13.56852 1.10015,-1.28351 v -2.56702 -2.01694 l -7.70105,-7.70105 -0.36672,-1.46687 c 0,0 0.36672,-11.9183 0.36672,-12.65173 0,-0.73344 1.2835,-2.75038 1.2835,-2.75038 l 22.18637,-21.26958 6.96762,-0.36671 3.85053,-0.36672 13.93524,-14.66867 1.83358,-0.55008 1.46687,-0.55007 h 2.01694 l 12.46838,12.46837 1.2835,0.55007 2.01695,1.28351 94.7963,-0.55007 h 1.46687 l 2.75037,2.75037 0.73344,0.9168 -14.48532,12.83509 -1.46687,1.46686 -0.73343,4.859 v 21.54462 0.64175 l -5.77579,4.95068 -0.4584,0.91679 -1.10015,2.01694 v 2.2003 l 0.64176,1.65023 11.18486,10.54311 2.2003,2.01694 0.55008,3.11709 -0.18336,1.55855 -12.37669,12.28501 -15.58547,-15.76882 -1.10015,-0.55007 -1.65023,-0.27504 -2.29198,1.10015 -9.35127,10.54311 -30.34582,-0.27504 z"
         id="path18" /></g></g></svg>
