<?xml version="1.0" encoding="UTF-8" standalone="no"?>
<!-- Created with Inkscape (http://www.inkscape.org/) -->

<svg
   version="1.1"
   id="svg1"
   width="965"
   height="657"
   viewBox="0 0 965 657"
   sodipodi:docname="MapВН.svg"
   xml:space="preserve"
   inkscape:version="1.3.2 (091e20e, 2023-11-25, custom)"
   xmlns:inkscape="http://www.inkscape.org/namespaces/inkscape"
   xmlns:sodipodi="http://sodipodi.sourceforge.net/DTD/sodipodi-0.dtd"
   xmlns="http://www.w3.org/2000/svg"
   xmlns:svg="http://www.w3.org/2000/svg"><defs
     id="defs1" /><sodipodi:namedview
     id="namedview1"
     pagecolor="#ffffff"
     bordercolor="#000000"
     borderopacity="0.25"
     inkscape:showpageshadow="2"
     inkscape:pageopacity="0.0"
     inkscape:pagecheckerboard="0"
     inkscape:deskcolor="#d1d1d1"
     showgrid="false"
     inkscape:zoom="0.96410461"
     inkscape:cx="189.81343"
     inkscape:cy="322.06049"
     inkscape:window-width="1920"
     inkscape:window-height="991"
     inkscape:window-x="-9"
     inkscape:window-y="-9"
     inkscape:window-maximized="1"
     inkscape:current-layer="g1" /><g
     inkscape:groupmode="layer"
     inkscape:label="Image"
     id="g1"><g
       id="g23"
       transform="translate(379.62686,218.85592)"><g
         id="g1503-6-2-2-1-1-9-3-0-1-6"
         transform="matrix(0.06007402,0,0,0.06135637,69.09648,130.35934)"><ellipse
           style="font-variation-settings:'wght' 400;fill:#f5f4ef;stroke:#000000;stroke-width:2.94438;stroke-linecap:square;paint-order:markers fill stroke"
           id="path1494-2-0-3-4-6-2-9-7-0-0"
           cx="384.85666"
           cy="249.82738"
           rx="151.94472"
           ry="152.78165" /><text
           xml:space="preserve"
           style="font-style:normal;font-variant:normal;font-weight:normal;font-stretch:normal;font-size:192px;line-height:1.25;font-family:sans-serif;-inkscape-font-specification:'sans-serif, Normal';font-variant-ligatures:normal;font-variant-caps:normal;font-variant-numeric:normal;font-variant-east-asian:normal;fill:#000000;fill-opacity:1;stroke:none"
           x="322.11462"
           y="319.48364"
           id="text1498-5-4-3-5-2-6-7-7-2-7"><tspan
             sodipodi:role="line"
             id="tspan1496-1-2-7-2-7-3-9-1-8-4"
             x="322.11462"
             y="319.48364">4</tspan></text></g><text
         xml:space="preserve"
         style="font-style:normal;font-weight:normal;font-size:17.8268px;line-height:1.25;font-family:sans-serif;fill:#000000;fill-opacity:1;stroke:none;stroke-width:0.44567"
         x="36.075447"
         y="127.45287"
         id="text1480-4-6-0-8-11-3-8-0-5-3-4-4"
         transform="scale(1.0454977,0.95648225)"><tspan
           sodipodi:role="line"
           x="36.075447"
           y="127.45287"
           style="font-style:normal;font-variant:normal;font-weight:normal;font-stretch:normal;font-size:17.4704px;font-family:'Cascadia Code';-inkscape-font-specification:'Cascadia Code, @wght=400';font-variant-ligatures:normal;font-variant-caps:normal;font-variant-numeric:normal;font-variant-east-asian:normal;font-variation-settings:'wght' 400;stroke-width:0.44567"
           id="tspan8-3-2-4-9-3-3-2-5">Видин</tspan></text><path
         style="fill:none;fill-opacity:1;stroke:#000000;stroke-opacity:1"
         d="M 99.563621,46.38968 71.509783,17.41905 70.226274,16.685616 68.39269,16.502258 h -1.833584 l -2.750377,1.650225 -1.283508,1.466868 v 28.328875 0.733434 l -0.458396,1.283509 -37.313439,37.313438 -0.825112,1.283509 -0.09168,34.196344 0.275038,1.55855 16.135541,16.13554 1.558546,1.83358 1.100151,1.83359 0.183358,1.28351 0.09168,19.06927 25.028425,24.84507 54.274087,-53.26562 1.10015,-1.74191 v -23.92827 l -8.52616,0.27504 -2.38366,-0.55008 -1.65023,-1.19183 -17.235688,-17.32737 -1.558547,-1.925264 -0.550075,-1.558546 -0.183358,-1.375188 0.458396,-1.375188 0.733433,-1.283509 13.110129,-13.660202 1.19183,-0.825113 0.82511,-0.183359 h 1.00847 l 8.80121,-0.275037 1.37518,-0.458396 8.06777,-8.251129 0.64176,-1.925264 0.36672,-1.833584 -1.10016,-2.658697 -4.21724,-4.400602 -3.30045,-2.750376 -1.74191,-0.733434 z"
         id="path23" /></g></g></svg>
