<?xml version="1.0" encoding="UTF-8" standalone="no"?>
<!-- Created with Inkscape (http://www.inkscape.org/) -->

<svg
   version="1.1"
   id="svg1"
   width="965"
   height="657"
   viewBox="0 0 965 657"
   sodipodi:docname="MapМ.svg"
   xml:space="preserve"
   inkscape:version="1.3.2 (091e20e, 2023-11-25, custom)"
   xmlns:inkscape="http://www.inkscape.org/namespaces/inkscape"
   xmlns:sodipodi="http://sodipodi.sourceforge.net/DTD/sodipodi-0.dtd"
   xmlns="http://www.w3.org/2000/svg"
   xmlns:svg="http://www.w3.org/2000/svg"><defs
     id="defs1" /><sodipodi:namedview
     id="namedview1"
     pagecolor="#ffffff"
     bordercolor="#000000"
     borderopacity="0.25"
     inkscape:showpageshadow="2"
     inkscape:pageopacity="0.0"
     inkscape:pagecheckerboard="0"
     inkscape:deskcolor="#d1d1d1"
     showgrid="false"
     inkscape:zoom="0.96410461"
     inkscape:cx="344.36097"
     inkscape:cy="346.95405"
     inkscape:window-width="1920"
     inkscape:window-height="991"
     inkscape:window-x="-9"
     inkscape:window-y="-9"
     inkscape:window-maximized="1"
     inkscape:current-layer="g24" /><g
     inkscape:groupmode="layer"
     inkscape:label="Image"
     id="g1"><g
       id="g24"><g
         id="g25"
         transform="translate(299.76,157.65924)"><g
           id="g1503-6-2-2-1-1-9-3-0-1-6-9"
           transform="matrix(0.06007402,0,0,0.06135637,140.09648,207.13595)"><ellipse
             style="font-variation-settings:'wght' 400;fill:#f5f4ef;stroke:#000000;stroke-width:2.94438;stroke-linecap:square;paint-order:markers fill stroke"
             id="path1494-2-0-3-4-6-2-9-7-0-0-8"
             cx="384.85666"
             cy="249.82738"
             rx="151.94472"
             ry="152.78165" /><text
             xml:space="preserve"
             style="font-style:normal;font-variant:normal;font-weight:normal;font-stretch:normal;font-size:192px;line-height:1.25;font-family:sans-serif;-inkscape-font-specification:'sans-serif, Normal';font-variant-ligatures:normal;font-variant-caps:normal;font-variant-numeric:normal;font-variant-east-asian:normal;fill:#000000;fill-opacity:1;stroke:none"
             x="322.11462"
             y="319.48364"
             id="text1498-5-4-3-5-2-6-7-7-2-7-1"><tspan
               sodipodi:role="line"
               id="tspan1496-1-2-7-2-7-3-9-1-8-4-4"
               x="322.11462"
               y="319.48364">4</tspan></text></g><text
           xml:space="preserve"
           style="font-style:normal;font-weight:normal;font-size:17.8268px;line-height:1.25;font-family:sans-serif;fill:#000000;fill-opacity:1;stroke:none;stroke-width:0.44567"
           x="94.952454"
           y="185.31949"
           id="text1480-4-6-0-8-11-3-8-0-5-3-4-4-2"
           transform="scale(1.0454977,0.95648225)"><tspan
             sodipodi:role="line"
             x="94.952454"
             y="185.31949"
             style="font-style:normal;font-variant:normal;font-weight:normal;font-stretch:normal;font-size:17.4704px;font-family:'Cascadia Code';-inkscape-font-specification:'Cascadia Code, @wght=400';font-variant-ligatures:normal;font-variant-caps:normal;font-variant-numeric:normal;font-variant-east-asian:normal;font-variation-settings:'wght' 400;stroke-width:0.44567"
             id="tspan8-3-2-4-9-3-3-2-5-3">Монтана</tspan></text><path
           style="fill:none;fill-opacity:1;stroke:#000000;stroke-opacity:1"
           d="m 123.76693,110.56513 -0.0917,22.82812 v 1.10015 l -1.46686,1.65023 -54.090738,53.08226 51.615398,50.88196 0.64175,1.65022 c 0,0 0,0 0,0.4584 0,0.4584 -0.27504,1.46687 -0.27504,1.46687 l -0.36671,0.55007 43.82266,0.36672 2.01694,-0.27504 1.55855,-0.91679 2.01694,-1.46687 1.92526,-2.29198 12.83509,-12.74341 1.19183,-1.7419 v -1.37519 -1.83358 l -1.19183,-1.46687 -6.96762,-6.60091 c 0,0 -0.18335,-0.55007 -0.18335,-0.91679 0,-0.36671 -0.4584,-37.58847 -0.4584,-37.58847 l 1.00847,-2.29198 1.10015,-1.28351 c 0,0 0.36672,-0.4584 0.73343,-0.73344 0.36672,-0.27503 1.28351,-0.91679 1.28351,-0.91679 l 26.58697,-0.0917 1.74191,-0.45839 1.10015,-0.9168 0.82511,-1.00847 0.36672,-1.46686 -0.27504,-55.64928 -4.58396,-0.27504 h -1.28351 l -1.00847,-0.36672 -1.37519,-1.19183 -6.50922,-6.96762 -1.10015,-0.64175 -0.27504,-0.27504 -1.37519,-0.4584 -2.01694,-0.18335 -34.19634,-0.366721 h -1.65023 l -1.28351,0.183361 -0.64175,0.64175 c 0,0 -2.20031,1.37519 -2.6587,1.74191 -0.4584,0.36671 -5.86747,6.69258 -5.86747,6.69258 l -1.28351,0.82511 h -1.28351 l -18.33584,-0.0917 h -0.55008 z"
           id="path24" /></g></g></g></svg>
