<?xml version="1.0" encoding="UTF-8" standalone="no"?>
<!-- Created with Inkscape (http://www.inkscape.org/) -->

<svg
   version="1.1"
   id="svg1"
   width="965"
   height="657"
   viewBox="0 0 965 657"
   sodipodi:docname="MapСН.svg"
   xml:space="preserve"
   inkscape:version="1.3.2 (091e20e, 2023-11-25, custom)"
   xmlns:inkscape="http://www.inkscape.org/namespaces/inkscape"
   xmlns:sodipodi="http://sodipodi.sourceforge.net/DTD/sodipodi-0.dtd"
   xmlns="http://www.w3.org/2000/svg"
   xmlns:svg="http://www.w3.org/2000/svg"><defs
     id="defs1" /><sodipodi:namedview
     id="namedview1"
     pagecolor="#ffffff"
     bordercolor="#000000"
     borderopacity="0.25"
     inkscape:showpageshadow="2"
     inkscape:pageopacity="0.0"
     inkscape:pagecheckerboard="0"
     inkscape:deskcolor="#d1d1d1"
     showgrid="false"
     inkscape:zoom="0.96410461"
     inkscape:cx="516.54146"
     inkscape:cy="315.8371"
     inkscape:window-width="1920"
     inkscape:window-height="991"
     inkscape:window-x="-9"
     inkscape:window-y="-9"
     inkscape:window-maximized="1"
     inkscape:current-layer="g1" /><g
     inkscape:groupmode="layer"
     inkscape:label="Image"
     id="g1"><g
       id="g7"
       transform="translate(-92.313634,19.707405)"><text
         xml:space="preserve"
         style="font-style:normal;font-weight:normal;font-size:17.8268px;line-height:1.25;font-family:sans-serif;fill:#000000;fill-opacity:1;stroke:none;stroke-width:0.44567"
         x="538.42627"
         y="354.62598"
         id="text1480-4-6-6"
         transform="scale(1.0454977,0.95648225)"><tspan
           sodipodi:role="line"
           id="tspan1478-3-3-4"
           x="538.42627"
           y="354.62598"
           style="font-style:normal;font-variant:normal;font-weight:normal;font-stretch:normal;font-size:17.4704px;font-family:'Cascadia Code';-inkscape-font-specification:'Cascadia Code, @wght=400';font-variant-ligatures:normal;font-variant-caps:normal;font-variant-numeric:normal;font-variant-east-asian:normal;font-variation-settings:'wght' 400;stroke-width:0.44567">Сливен</tspan></text><g
         id="g1503-6-2-3"
         transform="matrix(0.06007402,0,0,0.06135637,557.29076,384.68413)"><ellipse
           style="font-variation-settings:'wght' 400;fill:#f5f4ef;stroke:#000000;stroke-width:2.94438;stroke-linecap:square;paint-order:markers fill stroke"
           id="path1494-2-0-8"
           cx="384.85666"
           cy="249.82738"
           rx="151.94472"
           ry="152.78165" /><text
           xml:space="preserve"
           style="font-style:normal;font-variant:normal;font-weight:normal;font-stretch:normal;font-size:192px;line-height:1.25;font-family:sans-serif;-inkscape-font-specification:'sans-serif, Normal';font-variant-ligatures:normal;font-variant-caps:normal;font-variant-numeric:normal;font-variant-east-asian:normal;fill:#000000;fill-opacity:1;stroke:none"
           x="322.11462"
           y="319.48364"
           id="text1498-5-4-7"><tspan
             sodipodi:role="line"
             id="tspan1496-1-2-4"
             x="322.11462"
             y="319.48364">6</tspan></text></g><path
         style="fill:none;fill-opacity:1;stroke:#000000;stroke-opacity:1"
         d="m 650.86298,270.71751 -48.62024,0.25931 -1.16688,0.38896 -1.16689,0.77793 -40.19273,39.1555 -1.03724,1.16688 -1.29654,0.90758 h -0.64827 l -4.27858,0.25931 -12.57643,0.38896 -0.38897,0.25931 -0.51861,72.99519 c 0,0 0,0.77792 0,1.29654 0,0.51862 0.38896,1.42619 0.38896,1.42619 l 0.90758,0.77793 17.89225,18.28121 1.16688,1.42619 0.90758,0.64827 12.44678,0.25931 h 1.68551 1.9448 l 1.55585,0.51862 1.03723,0.77792 1.55585,1.16689 10.89094,11.02059 0.12965,-41.10032 0.38896,-0.90757 0.90758,-2.46343 1.03723,-0.77792 1.16689,-1.16689 1.03723,-0.38896 h 18.41087 l 2.59307,-0.12966 1.68551,-0.64827 2.98204,-2.46342 43.56374,-43.69339 -0.51862,-1.03723 -16.98467,-16.85502 -0.38896,-1.29654 0.38896,-19.31845 -0.51862,-0.51861 -2.59308,-1.94481 -2.33377,-1.94481 -0.77792,-1.16689 -0.90758,-1.81515 -0.38896,-1.94481 v -1.55585 l 0.51861,-0.90758 1.94481,-1.94481 c 0,0 0.77793,-0.51861 1.16689,-1.03723 0.38896,-0.51861 1.29654,-1.55585 1.29654,-1.55585 l 1.29654,-1.29654 z"
         id="path7" /></g></g></svg>
