<?xml version="1.0" encoding="UTF-8" standalone="no"?>
<!-- Created with Inkscape (http://www.inkscape.org/) -->

<svg
   version="1.1"
   id="svg1"
   width="965"
   height="657"
   viewBox="0 0 965 657"
   sodipodi:docname="MapР.svg"
   xml:space="preserve"
   inkscape:version="1.3.2 (091e20e, 2023-11-25, custom)"
   xmlns:inkscape="http://www.inkscape.org/namespaces/inkscape"
   xmlns:sodipodi="http://sodipodi.sourceforge.net/DTD/sodipodi-0.dtd"
   xmlns="http://www.w3.org/2000/svg"
   xmlns:svg="http://www.w3.org/2000/svg"><defs
     id="defs1" /><sodipodi:namedview
     id="namedview1"
     pagecolor="#ffffff"
     bordercolor="#000000"
     borderopacity="0.25"
     inkscape:showpageshadow="2"
     inkscape:pageopacity="0.0"
     inkscape:pagecheckerboard="0"
     inkscape:deskcolor="#d1d1d1"
     showgrid="false"
     inkscape:zoom="0.96410461"
     inkscape:cx="603.66893"
     inkscape:cy="233.89578"
     inkscape:window-width="1920"
     inkscape:window-height="991"
     inkscape:window-x="-9"
     inkscape:window-y="-9"
     inkscape:window-maximized="1"
     inkscape:current-layer="g1" /><g
     inkscape:groupmode="layer"
     inkscape:label="Image"
     id="g1"><g
       id="g5"
       transform="translate(-79.866852,194.99959)"><text
         xml:space="preserve"
         style="font-style:normal;font-weight:normal;font-size:19.0475px;line-height:1.25;font-family:sans-serif;fill:#000000;fill-opacity:1;stroke:none;stroke-width:0.476187"
         x="545.54822"
         y="126.68474"
         id="text1480-4-2"><tspan
           sodipodi:role="line"
           id="tspan1478-3-1"
           x="545.54822"
           y="126.68474"
           style="font-style:normal;font-variant:normal;font-weight:normal;font-stretch:normal;font-size:18.6667px;font-family:'Cascadia Code';-inkscape-font-specification:'Cascadia Code, @wght=400';font-variant-ligatures:normal;font-variant-caps:normal;font-variant-numeric:normal;font-variant-east-asian:normal;font-variation-settings:'wght' 400;stroke-width:0.476187">Русе</tspan></text><g
         id="g1503-6-9"
         transform="matrix(0.06007402,0,0,0.06135637,527.24672,173.02951)"><ellipse
           style="font-variation-settings:'wght' 400;fill:#f5f4ef;stroke:#000000;stroke-width:2.94438;stroke-linecap:square;paint-order:markers fill stroke"
           id="path1494-2-1"
           cx="384.85666"
           cy="249.82738"
           rx="151.94472"
           ry="152.78165" /><text
           xml:space="preserve"
           style="font-style:normal;font-variant:normal;font-weight:normal;font-stretch:normal;font-size:192px;line-height:1.25;font-family:sans-serif;-inkscape-font-specification:'sans-serif, Normal';font-variant-ligatures:normal;font-variant-caps:normal;font-variant-numeric:normal;font-variant-east-asian:normal;fill:#000000;fill-opacity:1;stroke:none"
           x="322.11462"
           y="319.48364"
           id="text1498-5-1"><tspan
             sodipodi:role="line"
             id="tspan1496-1-3"
             x="322.11462"
             y="319.48364">7</tspan></text></g><path
         style="fill:none;fill-opacity:1;stroke:#000000;stroke-opacity:1"
         d="m 486.08317,157.32152 41.98907,42.53916 2.75038,1.2835 23.46988,0.55008 2.01694,-2.2003 7.33434,-7.5177 0.36671,-1.28351 0.36672,-14.11859 0.36672,-1.46687 1.10015,-2.2003 6.23418,-5.50075 -0.73343,-6.60091 0.33199,-5.60951 0.16206,-2.59308 0.32414,-2.69032 0.71309,-1.26413 1.00482,-1.39378 1.58826,-0.4862 5.44547,-0.97241 1.71792,-0.74551 1.65308,-1.26413 1.68551,-2.07446 1.29654,-1.49102 1.42619,-0.25931 1.36137,0.0648 3.56548,1.81516 3.63031,4.40823 1.4262,0.25931 19.90188,-0.19448 13.90539,-0.0648 1.81516,-0.74551 1.91239,-1.39378 0.35655,-0.29172 0.93999,-2.94963 -0.2593,-15.72054 -10.63163,-10.53439 -2.20412,-1.26413 -15.29917,-0.9724 -2.00963,-1.16689 -1.06965,-1.6855 V 93.286039 l 8.1239,-9.307883 1.28351,-0.825113 0.91679,-0.733434 V 61.975145 l -32.36276,0.275038 -0.82511,0.550075 z"
         id="path5" /></g></g></svg>
