<?xml version="1.0" encoding="UTF-8" standalone="no"?>
<!-- Created with Inkscape (http://www.inkscape.org/) -->

<svg
   version="1.1"
   id="svg1"
   width="965"
   height="657"
   viewBox="0 0 965 657"
   sodipodi:docname="MapСТ.svg"
   xml:space="preserve"
   inkscape:version="1.3.2 (091e20e, 2023-11-25, custom)"
   xmlns:inkscape="http://www.inkscape.org/namespaces/inkscape"
   xmlns:sodipodi="http://sodipodi.sourceforge.net/DTD/sodipodi-0.dtd"
   xmlns="http://www.w3.org/2000/svg"
   xmlns:svg="http://www.w3.org/2000/svg"><defs
     id="defs1" /><sodipodi:namedview
     id="namedview1"
     pagecolor="#ffffff"
     bordercolor="#000000"
     borderopacity="0.25"
     inkscape:showpageshadow="2"
     inkscape:pageopacity="0.0"
     inkscape:pagecheckerboard="0"
     inkscape:deskcolor="#d1d1d1"
     showgrid="false"
     inkscape:zoom="0.68172491"
     inkscape:cx="608.74995"
     inkscape:cy="197.29366"
     inkscape:window-width="1920"
     inkscape:window-height="991"
     inkscape:window-x="-9"
     inkscape:window-y="-9"
     inkscape:window-maximized="1"
     inkscape:current-layer="g1" /><g
     inkscape:groupmode="layer"
     inkscape:label="Image"
     id="g1"><g
       id="g8"><g
         id="g1503-6-2-2-1"
         transform="matrix(0.06007402,0,0,0.06135637,542.79603,422.13595)"><ellipse
           style="font-variation-settings:'wght' 400;fill:#f5f4ef;stroke:#000000;stroke-width:2.94438;stroke-linecap:square;paint-order:markers fill stroke"
           id="path1494-2-0-3-4"
           cx="384.85666"
           cy="249.82738"
           rx="151.94472"
           ry="152.78165" /><text
           xml:space="preserve"
           style="font-style:normal;font-variant:normal;font-weight:normal;font-stretch:normal;font-size:192px;line-height:1.25;font-family:sans-serif;-inkscape-font-specification:'sans-serif, Normal';font-variant-ligatures:normal;font-variant-caps:normal;font-variant-numeric:normal;font-variant-east-asian:normal;fill:#000000;fill-opacity:1;stroke:none"
           x="267.17487"
           y="307.52997"
           id="text1498-5-4-3-5"><tspan
             sodipodi:role="line"
             id="tspan1496-1-2-7-2"
             x="267.17487"
             y="307.52997">11</tspan></text></g><text
         xml:space="preserve"
         style="font-style:normal;font-weight:normal;font-size:17.8268px;line-height:1.25;font-family:sans-serif;fill:#000000;fill-opacity:1;stroke:none;stroke-width:0.44567"
         x="427.34897"
         y="389.82544"
         id="text1480-4-6-0-8"
         transform="scale(1.0454977,0.95648225)"><tspan
           sodipodi:role="line"
           id="tspan1478-3-3-6-4"
           x="427.34897"
           y="389.82544"
           style="font-style:normal;font-variant:normal;font-weight:normal;font-stretch:normal;font-size:17.4704px;font-family:'Cascadia Code';-inkscape-font-specification:'Cascadia Code, @wght=400';font-variant-ligatures:normal;font-variant-caps:normal;font-variant-numeric:normal;font-variant-east-asian:normal;font-variation-settings:'wght' 400;stroke-width:0.44567">Стара</tspan><tspan
           sodipodi:role="line"
           x="427.34897"
           y="412.10895"
           style="font-style:normal;font-variant:normal;font-weight:normal;font-stretch:normal;font-size:17.4704px;font-family:'Cascadia Code';-inkscape-font-specification:'Cascadia Code, @wght=400';font-variant-ligatures:normal;font-variant-caps:normal;font-variant-numeric:normal;font-variant-east-asian:normal;font-variation-settings:'wght' 400;stroke-width:0.44567"
           id="tspan8"> Загора</tspan></text><path
         style="fill:none;fill-opacity:1;stroke:#000000;stroke-opacity:1"
         d="m 539.61987,314.79987 -33.19142,-0.51862 -1.81516,0.51862 -0.77792,0.51861 -2.59308,2.59308 -1.81516,1.03723 -81.94131,0.25931 -0.51862,44.60097 0.77793,2.85239 1.03723,1.81515 1.03723,0.77793 0.8963,0.21267 1.28351,0.36672 13.75188,-0.0917 1.28351,0.36672 0.73343,0.64175 0.73344,0.64176 0.64175,0.91679 0.64176,1.46687 0.27503,38.68862 -0.55007,1.83359 -0.4584,1.00847 -0.64175,1.00847 -0.73344,0.36672 -1.46686,0.64175 -2.38366,0.27504 h -1.92527 l -0.82511,0.0917 c 0,0 -0.55007,0.18335 -1.10015,0.55007 -0.55007,0.36672 -2.56702,2.10862 -2.56702,2.10862 0,0 -1.10015,1.10015 -0.73343,1.10015 0.36672,0 -0.4584,11.18487 -0.4584,11.18487 l 0.27504,3.75885 0.55008,2.84205 1.2835,1.00847 1.55855,1.37519 h 0.73344 l 28.60391,0.36672 1.00847,0.45839 8.98456,8.52617 1.10015,0.64175 1.10015,0.27504 1.19183,0.18336 h 0.91679 l 1.83359,-0.36672 0.82511,-0.36671 8.70953,-8.80121 1.19183,-0.73343 15.31042,-0.18336 1.46687,0.36672 2.6587,1.7419 13.01845,13.6602 1.28351,1.10015 1.46686,1.00848 c 0,0 1.37519,0.27503 1.74191,0.27503 0.36671,0 2.65869,0 2.65869,0 0,0 2.6587,0 3.02542,0 0.36672,0 2.47534,0 2.47534,0 l 0.73343,-0.18335 1.74191,-1.10016 8.61784,-9.35127 c 0,0 0.27504,-0.36672 0.64176,-0.4584 0.36671,-0.0917 1.83358,-0.27504 1.83358,-0.27504 l 4.03389,-0.27504 h 2.84205 2.01694 l 1.65023,0.55008 1.00847,0.36672 8.61785,8.98456 1.28351,1.46687 1.46686,0.36671 9.53464,-0.45839 0.91679,-0.4584 0.55008,-0.82511 1.00847,-1.19183 0.36672,-1.10015 0.0917,-18.88592 1.10015,-1.55855 2.47533,-3.20877 1.65023,-1.37519 1.92526,-1.65022 2.01695,-2.2003 1.83358,-1.65023 0.18336,-1.00847 -11.82662,-11.82662 -1.28351,-0.82511 -0.91679,-0.27504 h -4.03389 -7.88441 l -3.85052,-0.0917 -0.27504,0.0917 -1.55855,-1.65022 -20.07775,-19.80271 -0.45839,-0.73344 z"
         id="path8" /></g></g></svg>
