<?xml version="1.0" encoding="UTF-8" standalone="no"?>
<!-- Created with Inkscape (http://www.inkscape.org/) -->

<svg
   version="1.1"
   id="svg1"
   width="965"
   height="657"
   viewBox="0 0 965 657"
   sodipodi:docname="MapСМ.svg"
   xml:space="preserve"
   inkscape:version="1.3.2 (091e20e, 2023-11-25, custom)"
   xmlns:inkscape="http://www.inkscape.org/namespaces/inkscape"
   xmlns:sodipodi="http://sodipodi.sourceforge.net/DTD/sodipodi-0.dtd"
   xmlns="http://www.w3.org/2000/svg"
   xmlns:svg="http://www.w3.org/2000/svg"><defs
     id="defs1" /><sodipodi:namedview
     id="namedview1"
     pagecolor="#ffffff"
     bordercolor="#000000"
     borderopacity="0.25"
     inkscape:showpageshadow="2"
     inkscape:pageopacity="0.0"
     inkscape:pagecheckerboard="0"
     inkscape:deskcolor="#d1d1d1"
     showgrid="false"
     inkscape:zoom="0.68172491"
     inkscape:cx="849.31619"
     inkscape:cy="377.71834"
     inkscape:window-width="1920"
     inkscape:window-height="991"
     inkscape:window-x="-9"
     inkscape:window-y="-9"
     inkscape:window-maximized="1"
     inkscape:current-layer="g1" /><g
     inkscape:groupmode="layer"
     inkscape:label="Image"
     id="g1"><g
       id="g13"
       transform="translate(110.01505,-231.03161)"><g
         id="g1503-6-2-2-1-1-9-3"
         transform="matrix(0.06007402,0,0,0.06135637,394.57786,566.54287)"><ellipse
           style="font-variation-settings:'wght' 400;fill:#f5f4ef;stroke:#000000;stroke-width:2.94438;stroke-linecap:square;paint-order:markers fill stroke"
           id="path1494-2-0-3-4-6-2-9"
           cx="384.85666"
           cy="249.82738"
           rx="151.94472"
           ry="152.78165" /><text
           xml:space="preserve"
           style="font-style:normal;font-variant:normal;font-weight:normal;font-stretch:normal;font-size:192px;line-height:1.25;font-family:sans-serif;-inkscape-font-specification:'sans-serif, Normal';font-variant-ligatures:normal;font-variant-caps:normal;font-variant-numeric:normal;font-variant-east-asian:normal;fill:#000000;fill-opacity:1;stroke:none"
           x="322.11462"
           y="319.48364"
           id="text1498-5-4-3-5-2-6-7"><tspan
             sodipodi:role="line"
             id="tspan1496-1-2-7-2-7-3-9"
             x="322.11462"
             y="319.48364">4</tspan></text></g><text
         xml:space="preserve"
         style="font-style:normal;font-weight:normal;font-size:17.8268px;line-height:1.25;font-family:sans-serif;fill:#000000;fill-opacity:1;stroke:none;stroke-width:0.44567"
         x="307.08041"
         y="569.38837"
         id="text1480-4-6-0-8-11-3-8"
         transform="scale(1.0454977,0.95648225)"><tspan
           sodipodi:role="line"
           x="307.08041"
           y="569.38837"
           style="font-style:normal;font-variant:normal;font-weight:normal;font-stretch:normal;font-size:17.4704px;font-family:'Cascadia Code';-inkscape-font-specification:'Cascadia Code, @wght=400';font-variant-ligatures:normal;font-variant-caps:normal;font-variant-numeric:normal;font-variant-east-asian:normal;font-variation-settings:'wght' 400;stroke-width:0.44567"
           id="tspan8-3-2-4">Смолян</tspan></text><path
         style="fill:none;fill-opacity:1;stroke:#000000;stroke-opacity:1"
         d="m 437.67654,608.93331 -12.46837,-13.01845 -1.65022,-0.91679 -0.82512,-0.82512 c 0,0 -43.08923,-0.45839 -43.45594,-0.45839 -0.36672,0 -1.74191,-0.27504 -1.74191,-0.27504 l -0.82511,-0.4584 -1.7419,-1.37518 -26.40362,-26.86201 -1.37519,-1.00847 -0.73343,-0.36672 -63.16697,-0.64175 -0.27504,-0.73344 0.0917,-33.09619 0.55007,-1.19183 1.00847,-1.10015 0.9168,-0.55008 0.82511,-0.64175 16.96065,-0.18336 1.28351,-0.0917 1.83359,-0.91679 2.38366,-2.47534 c 0,0 2.75037,-2.2003 3.11709,-2.38366 0.36672,-0.18336 1.7419,-2.29198 1.7419,-2.29198 l 0.4584,-2.47534 v -6.32586 l 0.73343,-1.83359 11.82662,-11.82662 1.92526,-0.91679 h 51.157 l 1.46687,0.55008 1.00847,0.91679 1.19183,1.19183 0.55008,27.13704 1.19183,2.01695 1.55854,1.7419 1.65023,0.73344 1.46687,0.27503 1.55854,-0.27503 1.10015,-1.00848 1.55855,-1.55854 1.37519,-1.46687 1.65022,-0.36672 2.01695,-0.0917 4.21724,0.0917 3.57549,-0.45839 1.65022,-0.36672 4.58397,-4.67564 0.55007,-0.55007 0.4584,-0.82512 0.18336,-3.48381 -0.0917,-1.55854 c 0,0 -0.36672,-1.55855 -0.36672,-1.92527 0,-0.36671 1.83358,-2.2003 1.83358,-2.2003 l 1.19183,-1.00847 0.91679,-0.4584 h 1.92527 l 1.83358,0.0917 0.73344,0.64176 1.92526,1.65022 1.37519,1.10015 0.55007,1.00848 2.01695,2.2003 0.0917,31.81268 -0.64175,1.92527 -0.82511,0.73343 -1.10015,1.10015 -1.55855,0.64175 -2.38366,0.36672 -3.66717,-0.27504 h -0.64175 l -1.65023,1.28351 -0.91679,1.19183 -0.82511,1.19183 -0.64176,13.47685 0.9168,1.55854 0.91679,1.65023 1.37519,0.73343 2.01694,0.4584 14.30195,0.36671 1.65023,0.36672 1.10015,0.64176 0.64176,0.64175 0.91679,0.73343 0.73343,2.01695 z"
         id="path13" /></g></g></svg>
