<?xml version="1.0" encoding="UTF-8" standalone="no"?>
<!-- Created with Inkscape (http://www.inkscape.org/) -->

<svg
   version="1.1"
   id="svg1"
   width="965"
   height="657"
   viewBox="0 0 965 657"
   sodipodi:docname="MapСО.svg"
   xml:space="preserve"
   inkscape:version="1.3.2 (091e20e, 2023-11-25, custom)"
   xmlns:inkscape="http://www.inkscape.org/namespaces/inkscape"
   xmlns:sodipodi="http://sodipodi.sourceforge.net/DTD/sodipodi-0.dtd"
   xmlns="http://www.w3.org/2000/svg"
   xmlns:svg="http://www.w3.org/2000/svg"><defs
     id="defs1" /><sodipodi:namedview
     id="namedview1"
     pagecolor="#ffffff"
     bordercolor="#000000"
     borderopacity="0.25"
     inkscape:showpageshadow="2"
     inkscape:pageopacity="0.0"
     inkscape:pagecheckerboard="0"
     inkscape:deskcolor="#d1d1d1"
     showgrid="false"
     inkscape:zoom="0.96410461"
     inkscape:cx="429.41398"
     inkscape:cy="207.96498"
     inkscape:window-width="1920"
     inkscape:window-height="991"
     inkscape:window-x="-9"
     inkscape:window-y="-9"
     inkscape:window-maximized="1"
     inkscape:current-layer="g1" /><g
     inkscape:groupmode="layer"
     inkscape:label="Image"
     id="g1"><g
       id="g26"
       transform="translate(248.93564,3.1116955)"><g
         id="g1503-6-2-2-1-1-0-9-5"
         transform="matrix(0.06007402,0,0,0.06135637,209.09648,400.13595)"><ellipse
           style="font-variation-settings:'wght' 400;fill:#f5f4ef;stroke:#000000;stroke-width:2.94438;stroke-linecap:square;paint-order:markers fill stroke"
           id="path1494-2-0-3-4-6-8-5-9"
           cx="384.85666"
           cy="249.82738"
           rx="151.94472"
           ry="152.78165" /><text
           xml:space="preserve"
           style="font-style:normal;font-variant:normal;font-weight:normal;font-stretch:normal;font-size:192px;line-height:1.25;font-family:sans-serif;-inkscape-font-specification:'sans-serif, Normal';font-variant-ligatures:normal;font-variant-caps:normal;font-variant-numeric:normal;font-variant-east-asian:normal;fill:#000000;fill-opacity:1;stroke:none"
           x="322.11462"
           y="319.48364"
           id="text1498-5-4-3-5-2-3-6-6"><tspan
             sodipodi:role="line"
             id="tspan1496-1-2-7-2-7-33-4-7"
             x="322.11462"
             y="319.48364">8</tspan></text></g><text
         xml:space="preserve"
         style="font-style:normal;font-weight:normal;font-size:17.8268px;line-height:1.25;font-family:sans-serif;fill:#000000;fill-opacity:1;stroke:none;stroke-width:0.44567"
         x="207.36725"
         y="344.78757"
         id="text1480-4-6-0-8-1-8-8-9"
         transform="scale(1.0454977,0.95648225)"><tspan
           sodipodi:role="line"
           x="207.36725"
           y="344.78757"
           style="font-style:normal;font-variant:normal;font-weight:normal;font-stretch:normal;font-size:17.4704px;font-family:'Cascadia Code';-inkscape-font-specification:'Cascadia Code, @wght=400';font-variant-ligatures:normal;font-variant-caps:normal;font-variant-numeric:normal;font-variant-east-asian:normal;font-variation-settings:'wght' 400;stroke-width:0.44567"
           id="tspan9-2-9-2">Софийска</tspan></text><path
         style="fill:none;fill-opacity:1;stroke:#000000;stroke-opacity:1"
         d="m 119.54097,244.13845 44.47132,0.51861 1.51452,-0.14861 3.34629,-2.15446 0.6876,-0.59592 3.66717,-4.35476 9.21376,-0.36671 1.7419,0.41255 0.73343,0.4584 c 0,0 21.59046,21.45293 21.4071,21.31541 -0.18336,-0.13751 1.74191,1.28351 1.74191,1.28351 l 0.96263,0.41256 61.19587,0.2292 24.98258,24.43251 -0.68759,20.90286 0.13752,0.96263 0.82511,1.42103 0.59592,0.96263 0.68759,0.96263 1.42103,0.68759 1.78774,0.64176 4.44644,-0.0917 21.91133,-0.50424 -0.0917,22.04885 0.18335,1.65023 0.50424,0.96263 3.20877,2.93373 8.06777,7.9761 c 0,0 0.55008,1.10015 0.6876,1.2835 0.13752,0.18336 0.22919,1.42103 0.22919,1.42103 l -0.13751,1.28351 v 0.77927 l -0.82512,1.37519 -1.00847,1.10015 -1.23767,1.37519 -7.47185,7.33434 -0.2292,-0.0917 -12.28502,-13.11013 -0.41255,-0.32088 -4.859,-2.2003 -30.62086,0.27504 -21.86549,20.7195 -0.32087,1.65023 0.13751,2.75037 0.9168,2.24615 17.00649,16.77729 -0.0458,3.89637 -41.8373,42.45917 -0.19449,1.55585 -3.24134,-3.69514 -0.90758,-0.7131 -0.64827,-0.38896 -18.58414,-0.025 -1.32934,0.32088 -1.14599,0.82511 -1.69607,1.7419 -0.32088,0.87096 0.0917,11.82661 -0.68759,1.28351 -1.28351,1.37519 -1.37519,0.96263 -1.83358,0.50424 -13.38517,-0.0917 -0.2292,-0.41256 v -0.55007 l 4.40061,-3.71301 0.87095,-1.60439 0.18336,-0.87095 -0.27504,-1.83358 -15.71628,-15.60151 -0.51862,-0.45379 -0.12965,-14.00262 -0.32414,-1.39379 -17.27639,-17.50328 -0.55103,-0.38896 -0.64827,0.12965 0.87636,-35.40561 v -0.4584 l 16.04386,16.3189 1.46686,1.00847 0.87096,0.55008 1.14599,0.36671 c 0,0 0.87095,0 1.05431,0 0.18336,0 1.14599,-0.32087 1.14599,-0.32087 l 1.69606,-0.73344 0.73344,-0.91679 c 0,0 2.06278,-1.55855 2.29198,-1.87942 0.2292,-0.32088 1.69606,-2.38366 1.69606,-2.38366 l 1.51271,-1.23767 c 0,0 0.82511,-0.36672 1.14599,-0.41256 0.32088,-0.0458 2.52118,0.0458 2.52118,0.0458 0,0 1.14599,-0.18336 1.37519,0.0917 0.22919,0.27504 1.87942,1.42103 1.87942,1.42103 l 12.05582,12.56005 1.7419,0.82511 1.9711,0.32088 1.42103,-0.2292 c 0,0 1.37519,-0.87095 1.51271,-1.05431 0.13752,-0.18336 1.00847,-1.10015 1.00847,-1.10015 0,0 0.91679,-1.42103 0.91679,-1.69606 0,-0.27504 0.0458,-2.10863 0.0458,-2.33782 0,-0.2292 0.18336,-3.1171 0.18336,-3.3463 0,-0.22919 -0.0917,-1.87942 -0.0917,-1.87942 0,0 -0.96263,-1.32935 -1.14599,-1.55855 -0.18336,-0.22919 -8.02193,-7.79273 -8.02193,-7.79273 l -1.55855,-1.83358 c 0,0 -0.87095,-1.51271 -0.87095,-1.87943 0,-0.36671 0.4584,-3.57549 0.4584,-3.57549 l -0.13752,-6.69258 -0.55008,-2.06278 -1.37519,-1.65023 -4.99651,-4.30892 -1.23767,-2.06278 c 0,0 0,-2.10862 0,-2.29198 0,-0.18336 -0.0516,-2.69712 -0.0516,-2.69712 l 12.83574,-12.70609 1.58826,-1.6855 0.35655,-0.87517 0.25931,-1.84757 0.0324,-11.63644 -0.0648,-2.36619 -0.38896,-1.06964 -0.68068,-0.93999 -1.36137,-0.58345 -0.16207,-0.16206 -39.47963,-0.25931 -1.03723,0.51861 c 0,0 -1.4262,0.58345 -1.55585,0.90758 -0.12966,0.32414 -18.15156,18.28121 -18.15156,18.28121 l -0.7131,0.90758 -0.9724,0.7131 -1.87998,0.19448 -5.25099,0.25931 -18.28121,0.45379 -21.00395,-21.1336 -0.518613,-0.38897 -13.937803,-0.38896 -11.992993,-11.02059 z"
         id="path26" /></g></g></svg>
