<?xml version="1.0" encoding="UTF-8" standalone="no"?>
<!-- Created with Inkscape (http://www.inkscape.org/) -->

<svg
   version="1.1"
   id="svg1"
   width="965"
   height="657"
   viewBox="0 0 965 657"
   sodipodi:docname="MapРВ16.svg"
   xml:space="preserve"
   inkscape:version="1.3.2 (091e20e, 2023-11-25, custom)"
   xmlns:inkscape="http://www.inkscape.org/namespaces/inkscape"
   xmlns:sodipodi="http://sodipodi.sourceforge.net/DTD/sodipodi-0.dtd"
   xmlns="http://www.w3.org/2000/svg"
   xmlns:svg="http://www.w3.org/2000/svg"><defs
     id="defs1" /><sodipodi:namedview
     id="namedview1"
     pagecolor="#ffffff"
     bordercolor="#000000"
     borderopacity="0.25"
     inkscape:showpageshadow="2"
     inkscape:pageopacity="0.0"
     inkscape:pagecheckerboard="0"
     inkscape:deskcolor="#d1d1d1"
     showgrid="false"
     inkscape:zoom="0.96410461"
     inkscape:cx="651.3816"
     inkscape:cy="329.32111"
     inkscape:window-width="1920"
     inkscape:window-height="991"
     inkscape:window-x="-9"
     inkscape:window-y="-9"
     inkscape:window-maximized="1"
     inkscape:current-layer="g1" /><g
     inkscape:groupmode="layer"
     inkscape:label="Image"
     id="g1"><g
       id="g16"
       transform="translate(39.933421,-105.79765)"><g
         id="g1503-6-2-2-1-10-9"
         transform="matrix(0.0473998,0,0,0.04790561,390.58528,439.08939)"><ellipse
           style="font-variation-settings:'wght' 400;fill:#f5f4ef;stroke:#000000;stroke-width:2.94438;stroke-linecap:square;paint-order:markers fill stroke"
           id="path1494-2-0-3-4-0-0"
           cx="384.85666"
           cy="249.82738"
           rx="151.94472"
           ry="152.78165" /><text
           xml:space="preserve"
           style="font-style:normal;font-variant:normal;font-weight:normal;font-stretch:normal;font-size:192px;line-height:1.25;font-family:sans-serif;-inkscape-font-specification:'sans-serif, Normal';font-variant-ligatures:normal;font-variant-caps:normal;font-variant-numeric:normal;font-variant-east-asian:normal;fill:#000000;fill-opacity:1;stroke:none"
           x="267.17487"
           y="307.52997"
           id="text1498-5-4-3-5-0-3"><tspan
             sodipodi:role="line"
             id="tspan1496-1-2-7-2-4-0"
             x="267.17487"
             y="307.52997">12</tspan></text></g><text
         xml:space="preserve"
         style="font-style:normal;font-weight:normal;font-size:17.8268px;line-height:1.25;font-family:sans-serif;fill:#000000;fill-opacity:1;stroke:none;stroke-width:0.44567"
         x="354.40976"
         y="446.97739"
         id="text1480-4-6-0-8-11-3-8-0-9"
         transform="scale(1.0454977,0.95648225)"><tspan
           sodipodi:role="line"
           x="354.40976"
           y="446.97739"
           style="font-style:normal;font-variant:normal;font-weight:normal;font-stretch:normal;font-size:17.4704px;font-family:'Cascadia Code';-inkscape-font-specification:'Cascadia Code, @wght=400';font-variant-ligatures:normal;font-variant-caps:normal;font-variant-numeric:normal;font-variant-east-asian:normal;font-variation-settings:'wght' 400;stroke-width:0.44567"
           id="tspan8-3-2-4-9-2">16</tspan></text><path
         style="fill:none;fill-opacity:1;stroke:#000000;stroke-opacity:1"
         d="m 376.61819,405.77218 -3.48381,2.29198 -2.84205,2.38366 -2.84206,3.66717 -3.94221,3.39213 -1.7419,1.83358 -0.55008,1.83359 -0.18335,0.91679 v 15.12707 c 0,0 0.27503,1.92526 0.27503,2.29198 0,0.36672 1.37519,2.01694 1.37519,2.01694 l 1.46687,1.37519 1.00847,0.4584 h 1.37519 l 2.10862,-0.27504 c 0,0 1.46687,0 1.92526,0 0.4584,0 2.75038,0 2.75038,0 h 2.38366 c 0,0 1.28351,0.64175 1.28351,0 0,-0.64176 0.64175,-2.10862 0.64175,-2.10862 l 2.47534,-1.28351 h 1.83359 l 4.12556,-0.18336 h 2.56702 l 2.01694,-0.91679 4.4006,-4.76732 6.87594,-6.05083 1.65023,-2.01694 0.82511,-2.84206 -0.18336,-1.37519 -1.19183,-1.55854 -12.37669,-12.46838 -1.83358,-1.55854 -1.10015,-0.4584 z"
         id="path15" /><path
         style="fill:none;fill-opacity:1;stroke:#000000;stroke-opacity:1"
         d="m 394.40741,435.37807 c 8.81647,9.59439 9.33509,10.11301 9.33509,10.11301"
         id="path16" /></g></g></svg>
