<?xml version="1.0" encoding="UTF-8" standalone="no"?>
<!-- Created with Inkscape (http://www.inkscape.org/) -->

<svg
   version="1.1"
   id="svg1"
   width="965"
   height="657"
   viewBox="0 0 965 657"
   sodipodi:docname="MapРА.svg"
   xml:space="preserve"
   inkscape:version="1.3.2 (091e20e, 2023-11-25, custom)"
   xmlns:inkscape="http://www.inkscape.org/namespaces/inkscape"
   xmlns:sodipodi="http://sodipodi.sourceforge.net/DTD/sodipodi-0.dtd"
   xmlns="http://www.w3.org/2000/svg"
   xmlns:svg="http://www.w3.org/2000/svg"><defs
     id="defs1" /><sodipodi:namedview
     id="namedview1"
     pagecolor="#ffffff"
     bordercolor="#000000"
     borderopacity="0.25"
     inkscape:showpageshadow="2"
     inkscape:pageopacity="0.0"
     inkscape:pagecheckerboard="0"
     inkscape:deskcolor="#d1d1d1"
     showgrid="false"
     inkscape:zoom="0.96410461"
     inkscape:cx="352.65883"
     inkscape:cy="327.24665"
     inkscape:window-width="1920"
     inkscape:window-height="991"
     inkscape:window-x="-9"
     inkscape:window-y="-9"
     inkscape:window-maximized="1"
     inkscape:current-layer="g1" /><g
     inkscape:groupmode="layer"
     inkscape:label="Image"
     id="g1"><g
       id="g19"
       transform="translate(195.0443,-105.93428)"><g
         id="g1503-6-2-2-1-1-0-9"
         transform="matrix(0.06007402,0,0,0.06135637,275.09648,493.13595)"><ellipse
           style="font-variation-settings:'wght' 400;fill:#f5f4ef;stroke:#000000;stroke-width:2.94438;stroke-linecap:square;paint-order:markers fill stroke"
           id="path1494-2-0-3-4-6-8-5"
           cx="384.85666"
           cy="249.82738"
           rx="151.94472"
           ry="152.78165" /><text
           xml:space="preserve"
           style="font-style:normal;font-variant:normal;font-weight:normal;font-stretch:normal;font-size:192px;line-height:1.25;font-family:sans-serif;-inkscape-font-specification:'sans-serif, Normal';font-variant-ligatures:normal;font-variant-caps:normal;font-variant-numeric:normal;font-variant-east-asian:normal;fill:#000000;fill-opacity:1;stroke:none"
           x="322.11462"
           y="319.48364"
           id="text1498-5-4-3-5-2-3-6"><tspan
             sodipodi:role="line"
             id="tspan1496-1-2-7-2-7-33-4"
             x="322.11462"
             y="319.48364">8</tspan></text></g><text
         xml:space="preserve"
         style="font-style:normal;font-weight:normal;font-size:17.8268px;line-height:1.25;font-family:sans-serif;fill:#000000;fill-opacity:1;stroke:none;stroke-width:0.44567"
         x="226.77153"
         y="469.51669"
         id="text1480-4-6-0-8-11-3-8-0-5"
         transform="scale(1.0454977,0.95648225)"><tspan
           sodipodi:role="line"
           x="226.77153"
           y="469.51669"
           style="font-style:normal;font-variant:normal;font-weight:normal;font-stretch:normal;font-size:17.4704px;font-family:'Cascadia Code';-inkscape-font-specification:'Cascadia Code, @wght=400';font-variant-ligatures:normal;font-variant-caps:normal;font-variant-numeric:normal;font-variant-east-asian:normal;font-variation-settings:'wght' 400;stroke-width:0.44567"
           id="tspan8-3-2-4-9-3">Пазарджик</tspan></text><path
         style="fill:none;fill-opacity:1;stroke:#000000;stroke-opacity:1"
         d="m 283.28876,541.64077 -47.85655,-47.48983 -1.10015,-1.65023 -0.36672,-2.38366 -0.18336,-50.97364 0.18336,-1.10015 40.1555,-40.33885 1.65022,-1.83359 0.18336,-1.46686 v -2.38366 l -17.23569,-17.23569 -0.73344,-1.83359 v -2.75037 l 0.18336,-1.83359 19.61935,-18.88592 2.01695,-1.83358 h 2.38366 l 28.42055,-0.36672 2.75038,1.28351 2.2003,0.91679 12.83509,13.75189 0.27791,38.04604 8.68682,8.94613 -0.64827,43.30442 -8.29786,10.24267 -0.38896,30.07972 -1.55491,0.94068 -11.32238,11.41406 -0.96263,1.60439 0.0917,6.73842 -0.4584,2.24614 -1.69606,2.38366 -2.4295,1.87943 -1.65023,1.42102 -1.10015,1.37519 -2.61286,1.37519 -17.69408,0.0917 -1.97111,1.28351 -1.19183,1.32935 -0.50423,1.19183 z"
         id="path19" /></g></g></svg>
