<?xml version="1.0" encoding="UTF-8" standalone="no"?>
<!-- Created with Inkscape (http://www.inkscape.org/) -->

<svg
   version="1.1"
   id="svg1"
   width="965"
   height="657"
   viewBox="0 0 965 657"
   sodipodi:docname="MapТ.svg"
   xml:space="preserve"
   inkscape:version="1.3.2 (091e20e, 2023-11-25, custom)"
   xmlns:inkscape="http://www.inkscape.org/namespaces/inkscape"
   xmlns:sodipodi="http://sodipodi.sourceforge.net/DTD/sodipodi-0.dtd"
   xmlns="http://www.w3.org/2000/svg"
   xmlns:svg="http://www.w3.org/2000/svg"><defs
     id="defs1" /><sodipodi:namedview
     id="namedview1"
     pagecolor="#ffffff"
     bordercolor="#000000"
     borderopacity="0.25"
     inkscape:showpageshadow="2"
     inkscape:pageopacity="0.0"
     inkscape:pagecheckerboard="0"
     inkscape:deskcolor="#d1d1d1"
     showgrid="false"
     inkscape:zoom="0.96410461"
     inkscape:cx="516.54146"
     inkscape:cy="315.8371"
     inkscape:window-width="1920"
     inkscape:window-height="991"
     inkscape:window-x="-9"
     inkscape:window-y="-9"
     inkscape:window-maximized="1"
     inkscape:current-layer="g1" /><g
     inkscape:groupmode="layer"
     inkscape:label="Image"
     id="g1"><g
       id="g7"
       transform="translate(-97.499793,85.053011)"><text
         xml:space="preserve"
         style="font-style:normal;font-weight:normal;font-size:17.8268px;line-height:1.25;font-family:sans-serif;fill:#000000;fill-opacity:1;stroke:none;stroke-width:0.44567"
         x="550.40485"
         y="237.91943"
         id="text1480-4-6"
         transform="scale(1.0454977,0.95648224)"><tspan
           sodipodi:role="line"
           id="tspan1478-3-3"
           x="550.40485"
           y="237.91943"
           style="font-style:normal;font-variant:normal;font-weight:normal;font-stretch:normal;font-size:17.4704px;font-family:'Cascadia Code';-inkscape-font-specification:'Cascadia Code, @wght=400';font-variant-ligatures:normal;font-variant-caps:normal;font-variant-numeric:normal;font-variant-east-asian:normal;font-variation-settings:'wght' 400;stroke-width:0.44567">Търговище</tspan></text><g
         id="g1503-6-2"
         transform="matrix(0.06007402,0,0,0.06135637,623.76139,241.8819)"><ellipse
           style="font-variation-settings:'wght' 400;fill:#f5f4ef;stroke:#000000;stroke-width:2.94438;stroke-linecap:square;paint-order:markers fill stroke"
           id="path1494-2-0"
           cx="384.85666"
           cy="249.82738"
           rx="151.94472"
           ry="152.78165" /><text
           xml:space="preserve"
           style="font-style:normal;font-variant:normal;font-weight:normal;font-stretch:normal;font-size:192px;line-height:1.25;font-family:sans-serif;-inkscape-font-specification:'sans-serif, Normal';font-variant-ligatures:normal;font-variant-caps:normal;font-variant-numeric:normal;font-variant-east-asian:normal;fill:#000000;fill-opacity:1;stroke:none"
           x="322.11462"
           y="319.48364"
           id="text1498-5-4"><tspan
             sodipodi:role="line"
             id="tspan1496-1-2"
             x="322.11462"
             y="319.48364">4</tspan></text></g><path
         style="fill:none;fill-opacity:1;stroke:#000000;stroke-opacity:1"
         d="m 554.14111,201.48229 c 2.33378,2.59308 23.8963,23.40681 23.8963,23.40681 l 0.9168,1.65023 v 1.46686 l -0.36672,2.10862 -1.92526,2.20031 -2.29199,2.01694 -1.37518,1.65022 -0.18336,30.8959 0.64175,1.92526 14.66868,14.02692 11.27654,-10.63479 1.10015,-0.73343 1.00847,-0.36672 h 48.68166 l 1.00847,-0.27504 8.80121,-9.2596 1.28351,-1.46686 0.27503,-20.26111 v -1.19183 l 8.89289,-8.61784 0.82511,-0.64176 -0.36672,-27.59544 -32.54612,-0.18336 -1.28351,0.0917 -1.46686,0.82511 -10.81815,10.54311 -1.74191,0.55008 -3.30045,0.82511 -4.67564,-2.93373 -1.00847,-1.28351 -1.55854,-1.55855 -0.27504,-2.2003 0.27504,-1.65023 1.19183,-1.55854 2.01694,-2.38366 7.60937,-8.43449 1.10015,-2.01694 v -2.38366 c 0,0 0,-1.00847 -0.27503,-1.37519 -0.27504,-0.36672 -24.20332,-24.01995 -24.20332,-24.01995 l -1.10015,-0.9168 -1.28351,-0.36671 -4.4006,0.27504 -2.01694,2.10862 -4.12556,3.30045 -0.36672,0.64175 -14.577,-0.0917 -5.77579,4.859 -0.91679,0.91679 -0.55007,1.83359 -0.27504,1.37519 -0.0917,0.73343 -0.36672,5.68411 v 3.57549 l -0.0917,4.12556 -0.27503,1.10016 -0.9168,0.91679 z"
         id="path6" /></g></g></svg>
