<?xml version="1.0" encoding="UTF-8" standalone="no"?>
<!-- Created with Inkscape (http://www.inkscape.org/) -->

<svg
   version="1.1"
   id="svg1"
   width="965"
   height="657"
   viewBox="0 0 965 657"
   sodipodi:docname="MapХ.svg"
   xml:space="preserve"
   inkscape:version="1.3.2 (091e20e, 2023-11-25, custom)"
   xmlns:inkscape="http://www.inkscape.org/namespaces/inkscape"
   xmlns:sodipodi="http://sodipodi.sourceforge.net/DTD/sodipodi-0.dtd"
   xmlns="http://www.w3.org/2000/svg"
   xmlns:svg="http://www.w3.org/2000/svg"><defs
     id="defs1" /><sodipodi:namedview
     id="namedview1"
     pagecolor="#ffffff"
     bordercolor="#000000"
     borderopacity="0.25"
     inkscape:showpageshadow="2"
     inkscape:pageopacity="0.0"
     inkscape:pagecheckerboard="0"
     inkscape:deskcolor="#d1d1d1"
     showgrid="false"
     inkscape:zoom="0.68172491"
     inkscape:cx="893.32221"
     inkscape:cy="361.5828"
     inkscape:window-width="1920"
     inkscape:window-height="991"
     inkscape:window-x="-9"
     inkscape:window-y="-9"
     inkscape:window-maximized="1"
     inkscape:current-layer="g1" /><g
     inkscape:groupmode="layer"
     inkscape:label="Image"
     id="g1"><g
       id="g12"
       transform="translate(-127.5311,-189.69129)"><g
         id="g1503-6-2-2-1-1"
         transform="matrix(0.06007402,0,0,0.06135637,553.09648,548.13595)"><ellipse
           style="font-variation-settings:'wght' 400;fill:#f5f4ef;stroke:#000000;stroke-width:2.94438;stroke-linecap:square;paint-order:markers fill stroke"
           id="path1494-2-0-3-4-6"
           cx="384.85666"
           cy="249.82738"
           rx="151.94472"
           ry="152.78165" /><text
           xml:space="preserve"
           style="font-style:normal;font-variant:normal;font-weight:normal;font-stretch:normal;font-size:192px;line-height:1.25;font-family:sans-serif;-inkscape-font-specification:'sans-serif, Normal';font-variant-ligatures:normal;font-variant-caps:normal;font-variant-numeric:normal;font-variant-east-asian:normal;fill:#000000;fill-opacity:1;stroke:none"
           x="322.11462"
           y="319.48364"
           id="text1498-5-4-3-5-2"><tspan
             sodipodi:role="line"
             id="tspan1496-1-2-7-2-7"
             x="322.11462"
             y="319.48364">8</tspan></text></g><g
         id="g11"><text
           xml:space="preserve"
           style="font-style:normal;font-weight:normal;font-size:17.8268px;line-height:1.25;font-family:sans-serif;fill:#000000;fill-opacity:1;stroke:none;stroke-width:0.44567"
           x="491.6319"
           y="521.51367"
           id="text1480-4-6-0-8-11"
           transform="scale(1.0454977,0.95648225)"><tspan
             sodipodi:role="line"
             x="491.6319"
             y="521.51367"
             style="font-style:normal;font-variant:normal;font-weight:normal;font-stretch:normal;font-size:17.4704px;font-family:'Cascadia Code';-inkscape-font-specification:'Cascadia Code, @wght=400';font-variant-ligatures:normal;font-variant-caps:normal;font-variant-numeric:normal;font-variant-east-asian:normal;font-variation-settings:'wght' 400;stroke-width:0.44567"
             id="tspan8-3">Хасково</tspan></text></g><path
         style="fill:none;fill-opacity:1;stroke:#000000;stroke-opacity:1"
         d="m 588.75873,583.44291 -20.35568,20.87429 -1.16688,1.03724 -2.33378,0.2593 h -7.90889 l -16.98467,-16.98467 -1.42619,-1.29654 -1.03724,-1.81515 0.51862,-33.58038 v -1.94481 l -0.77792,-1.94481 -0.90758,-0.90758 -1.6855,-1.29654 -1.29654,-0.51862 -19.96672,-0.12965 -1.03723,-0.38896 -1.29654,-1.29654 -1.03723,-1.4262 -0.64827,-2.59308 0.12965,-13.61366 -0.12965,-1.68551 -0.51862,-0.77792 -1.16688,-1.42619 -0.51862,-0.64827 -1.42619,-0.77793 -1.29654,-0.38896 -25.28253,0.12966 -1.94481,-0.12966 -1.94481,-1.94481 -14.9102,-14.91021 -0.77793,-0.90757 -0.12965,-1.68551 -0.51862,-42.00789 0.51862,-2.85238 0.64827,-1.29654 1.16688,-1.6855 2.98205,-3.24135 1.6855,-1.03724 0.38896,-0.38896 2.46343,2.43101 0.71309,0.51862 1.06965,0.4862 1.65309,0.29172 1.62067,0.12966 1.94481,-0.68069 1.42619,-1.23171 7.45511,-7.42269 1.32895,-0.81034 15.33158,-0.29172 1.4262,0.42138 2.75515,1.45861 13.61366,14.424 2.00964,1.45861 1.75033,0.35655 8.52475,-0.0972 0.81034,-0.2269 1.32895,-0.81034 8.81647,-9.69163 c 0,0 0.35655,-0.32414 0.4862,-0.32414 0.12966,0 4.18134,-0.35654 4.18134,-0.35654 l 4.73237,-0.12966 h 1.62068 l 0.58344,0.19448 2.30136,0.81034 5.70477,5.83443 3.72756,3.88962 0.29172,0.32413 0.42137,0.32414 1.29654,0.38896 9.17302,-0.45379 0.90758,-0.32413 0.74551,-0.81034 0.45379,-0.68068 0.74551,-0.74551 0.29172,-1.00482 0.12965,-18.89707 3.43584,-4.86202 3.66272,-2.78757 3.72755,-3.8572 0.2269,-0.64827 0.29172,-0.42138 12.28471,12.34954 v 0.25931 l 25.47701,0.0648 3.40342,2.00964 1.36136,2.30135 0.25931,0.61586 v 0.58344 l -0.0972,30.33904 1.39378,2.1717 0.58344,0.61586 14.29436,13.38677 -34.26107,33.54797 -1.16688,1.55584 -1.4262,0.51862 -37.99854,-0.48794 -1.28351,0.0917 -1.00847,1.00847 -0.82511,1.19183 c 0,0 0.0917,0.0917 0,0.73343 -0.0917,0.64176 -0.36672,4.4006 -0.36672,4.4006 l -0.007,8.81489 0.32413,1.23171 15.94744,15.10469 0.58345,0.58344 0.19448,0.64827 z"
         id="path11" /></g></g></svg>
