<?xml version="1.0" encoding="UTF-8" standalone="no"?>
<!-- Created with Inkscape (http://www.inkscape.org/) -->

<svg
   version="1.1"
   id="svg1"
   width="965"
   height="657"
   viewBox="0 0 965 657"
   sodipodi:docname="MapСВ23.svg"
   xml:space="preserve"
   inkscape:version="1.3.2 (091e20e, 2023-11-25, custom)"
   xmlns:inkscape="http://www.inkscape.org/namespaces/inkscape"
   xmlns:sodipodi="http://sodipodi.sourceforge.net/DTD/sodipodi-0.dtd"
   xmlns="http://www.w3.org/2000/svg"
   xmlns:svg="http://www.w3.org/2000/svg"><defs
     id="defs1" /><sodipodi:namedview
     id="namedview1"
     pagecolor="#ffffff"
     bordercolor="#000000"
     borderopacity="0.25"
     inkscape:showpageshadow="2"
     inkscape:pageopacity="0.0"
     inkscape:pagecheckerboard="0"
     inkscape:deskcolor="#d1d1d1"
     showgrid="false"
     inkscape:zoom="1.9282092"
     inkscape:cx="300.79724"
     inkscape:cy="263.7162"
     inkscape:window-width="1920"
     inkscape:window-height="991"
     inkscape:window-x="-9"
     inkscape:window-y="-9"
     inkscape:window-maximized="1"
     inkscape:current-layer="g34" /><g
     inkscape:groupmode="layer"
     inkscape:label="Image"
     id="g1"><g
       id="g34"
       transform="translate(185.6645,-72.606229)"><g
         id="g1503-6-2-2-1-10-9-0"
         transform="matrix(0.0473998,0,0,0.04790561,230.07098,301.63568)"><ellipse
           style="font-variation-settings:'wght' 400;fill:#f5f4ef;stroke:#000000;stroke-width:2.94438;stroke-linecap:square;paint-order:markers fill stroke"
           id="path1494-2-0-3-4-0-0-3"
           cx="384.85666"
           cy="249.82738"
           rx="151.94472"
           ry="152.78165" /><text
           xml:space="preserve"
           style="font-style:normal;font-variant:normal;font-weight:normal;font-stretch:normal;font-size:192px;line-height:1.25;font-family:sans-serif;-inkscape-font-specification:'sans-serif, Normal';font-variant-ligatures:normal;font-variant-caps:normal;font-variant-numeric:normal;font-variant-east-asian:normal;fill:#000000;fill-opacity:1;stroke:none"
           x="267.17487"
           y="307.52997"
           id="text1498-5-4-3-5-0-3-7"><tspan
             sodipodi:role="line"
             id="tspan1496-1-2-7-2-4-0-2"
             x="267.17487"
             y="307.52997">19</tspan></text></g><text
         xml:space="preserve"
         style="font-style:normal;font-weight:normal;font-size:17.8268px;line-height:1.25;font-family:sans-serif;fill:#000000;fill-opacity:1;stroke:none;stroke-width:0.44567"
         x="179.04887"
         y="331.19556"
         id="text1480-4-6-0-8-11-3-8-0-9-7"
         transform="scale(1.0454977,0.95648225)"><tspan
           sodipodi:role="line"
           x="179.04887"
           y="331.19556"
           style="font-style:normal;font-variant:normal;font-weight:normal;font-stretch:normal;font-size:17.4704px;font-family:'Cascadia Code';-inkscape-font-specification:'Cascadia Code, @wght=400';font-variant-ligatures:normal;font-variant-caps:normal;font-variant-numeric:normal;font-variant-east-asian:normal;font-variation-settings:'wght' 400;stroke-width:0.44567"
           id="tspan8-3-2-4-9-2-1">23</tspan></text><path
         style="fill:none;fill-opacity:1;stroke:#000000;stroke-opacity:1"
         d="m 172.75147,311.9997 24.01995,-23.46988 6.14251,5.82163 3.16293,2.15446 3.66717,0.18336 1.00847,-0.41256 4.4006,-4.12556 0.0917,4.76732 1.19183,2.06278 5.31739,4.30892 1.14599,1.83359 0.50424,1.92526 0.2292,7.01346 -0.4584,2.75038 -0.0917,0.91679 10.63479,11.13902 0.68759,1.10015 0.32088,1.14599 -0.2292,6.87594 -0.55007,0.96264 -0.6876,1.05431 -0.96263,0.77927 -1.23767,0.87095 -1.14599,0.27504 -1.9711,-0.27504 -2.2003,-0.87095 -12.46837,-13.29349 -1.60439,-1.00847 c 0,0 -1.65023,0.2292 -2.01694,0.2292 -0.36672,0 -2.29198,0.18336 -2.29198,0.18336 l -1.37519,0.73343 -0.91679,1.10015 -1.37519,2.06279 -1.65023,1.14599 -0.55007,0.50423 -0.59592,0.55008 -0.36671,0.55007 -2.79622,1.05431 c 0,0 -0.18336,0.18336 -0.73343,0 -0.55008,-0.18336 -1.14599,-0.41255 -1.14599,-0.41255 l -1.10015,-0.41256 -1.51271,-1.37519 z"
         id="path29" /><path
         style="fill:none;fill-opacity:1;stroke:#000000;stroke-opacity:1"
         d="m 223.52346,315.31848 c 17.89225,-0.77792 17.89225,-1.03723 17.89225,-1.03723"
         id="path30" /></g><g
       id="g33" /></g></svg>
