<?xml version="1.0" encoding="UTF-8" standalone="no"?>
<!-- Created with Inkscape (http://www.inkscape.org/) -->

<svg
   version="1.1"
   id="svg1"
   width="965"
   height="657"
   viewBox="0 0 965 657"
   sodipodi:docname="MapРВ.svg"
   xml:space="preserve"
   inkscape:version="1.3.2 (091e20e, 2023-11-25, custom)"
   xmlns:inkscape="http://www.inkscape.org/namespaces/inkscape"
   xmlns:sodipodi="http://sodipodi.sourceforge.net/DTD/sodipodi-0.dtd"
   xmlns="http://www.w3.org/2000/svg"
   xmlns:svg="http://www.w3.org/2000/svg"><defs
     id="defs1" /><sodipodi:namedview
     id="namedview1"
     pagecolor="#ffffff"
     bordercolor="#000000"
     borderopacity="0.25"
     inkscape:showpageshadow="2"
     inkscape:pageopacity="0.0"
     inkscape:pagecheckerboard="0"
     inkscape:deskcolor="#d1d1d1"
     showgrid="false"
     inkscape:zoom="1.3634498"
     inkscape:cx="476.73189"
     inkscape:cy="336.27934"
     inkscape:window-width="1920"
     inkscape:window-height="991"
     inkscape:window-x="-9"
     inkscape:window-y="-9"
     inkscape:window-maximized="1"
     inkscape:current-layer="g16" /><g
     inkscape:groupmode="layer"
     inkscape:label="Image"
     id="g1"><g
       id="g16"><g
         id="g17"
         transform="translate(33.004515,-56.474395)"><g
           id="g1503-6-2-2-1-10"
           transform="matrix(0.06007402,0,0,0.06135637,409.09648,465.13595)"><ellipse
             style="font-variation-settings:'wght' 400;fill:#f5f4ef;stroke:#000000;stroke-width:2.94438;stroke-linecap:square;paint-order:markers fill stroke"
             id="path1494-2-0-3-4-0"
             cx="384.85666"
             cy="249.82738"
             rx="151.94472"
             ry="152.78165" /><text
             xml:space="preserve"
             style="font-style:normal;font-variant:normal;font-weight:normal;font-stretch:normal;font-size:192px;line-height:1.25;font-family:sans-serif;-inkscape-font-specification:'sans-serif, Normal';font-variant-ligatures:normal;font-variant-caps:normal;font-variant-numeric:normal;font-variant-east-asian:normal;fill:#000000;fill-opacity:1;stroke:none"
             x="267.17487"
             y="307.52997"
             id="text1498-5-4-3-5-0"><tspan
               sodipodi:role="line"
               id="tspan1496-1-2-7-2-4"
               x="267.17487"
               y="307.52997">11</tspan></text></g><text
           xml:space="preserve"
           style="font-style:normal;font-weight:normal;font-size:17.8268px;line-height:1.25;font-family:sans-serif;fill:#000000;fill-opacity:1;stroke:none;stroke-width:0.44567"
           x="327.05383"
           y="404.10068"
           id="text1480-4-6-0-8-11-3-8-0"
           transform="scale(1.0454977,0.95648225)"><tspan
             sodipodi:role="line"
             x="327.05383"
             y="404.10068"
             style="font-style:normal;font-variant:normal;font-weight:normal;font-stretch:normal;font-size:17.4704px;font-family:'Cascadia Code';-inkscape-font-specification:'Cascadia Code, @wght=400';font-variant-ligatures:normal;font-variant-caps:normal;font-variant-numeric:normal;font-variant-east-asian:normal;font-variation-settings:'wght' 400;stroke-width:0.44567"
             id="tspan8-3-2-4-9">Пловдив</tspan></text><path
           style="fill:none;fill-opacity:1;stroke:#000000;stroke-opacity:1"
           d="m 328.02821,493.60086 v -29.15399 l 1.28351,-2.01694 7.51769,-8.8012 0.18336,-42.17244 v -1.28351 l -8.25113,-8.98456 -0.36671,-37.22176 0.18336,-1.10015 9.53463,-9.53464 0.9168,-1.83358 v -2.56702 l -0.9168,-1.83358 -11.55158,-11.55158 -0.36671,-1.83359 0.18335,-22.00301 36.85505,0.36672 1.46686,0.55007 1.83359,1.28351 9.16792,9.718 2.2003,0.91679 31.72101,0.55008 1.83358,-0.55008 1.83358,-1.28351 4.12557,-5.04236 -0.36672,45.56457 0.27504,1.37519 0.36672,1.28351 0.73343,1.65022 0.91679,0.73344 1.55855,0.73343 1.92526,0.55008 12.83509,-0.27504 1.46687,0.4584 1.7419,1.65022 0.9168,1.10015 v 1.37519 l 0.27503,38.13855 -0.91679,2.6587 -0.45839,1.19183 -2.93374,1.10015 h -4.58396 l -4.30892,3.30045 -0.73344,13.56852 0.64176,4.49228 2.6587,2.38366 1.19183,0.36672 28.14551,0.18336 1.60439,0.73343 c 0,0 5.50075,5.17988 5.59243,5.36324 0.0917,0.18335 0.27504,0.27503 0.27504,0.27503 l -1.78775,1.37519 -2.24614,2.2003 -1.32935,1.60439 -1.10015,1.92526 -0.55007,1.28351 v 1.19183 l 0.0917,24.70755 -30.80422,29.84158 -0.27503,0.4584 -2.29198,-2.38366 -0.0917,-0.73344 -4.12557,-3.30045 -3.57549,-0.27504 h -0.45839 l -3.57549,3.02542 -0.32088,1.00847 0.50424,1.42103 -0.0458,4.99651 -0.41256,0.55008 -4.90484,5.27155 -0.91679,0.64176 -4.76732,0.59591 -5.04236,-0.13752 -1.32934,0.13752 -0.77928,0.2292 -0.87095,0.32088 -3.71301,3.71301 -1.05431,0.22919 -0.45839,0.0917 -1.69607,-0.27503 -0.91679,-0.2292 -0.50424,-0.27504 -1.69606,-1.7419 -1.14599,-2.10863 -0.55008,-27.04536 -2.2003,-2.15446 -1.28351,-0.64176 z"
           id="path14" /><path
           style="fill:none;fill-opacity:1;stroke:#000000;stroke-opacity:1"
           d="m 376.61819,405.77218 -3.48381,2.29198 -2.84205,2.38366 -2.84206,3.66717 -3.94221,3.39213 -1.7419,1.83358 -0.55008,1.83359 -0.18335,0.91679 v 15.12707 c 0,0 0.27503,1.92526 0.27503,2.29198 0,0.36672 1.37519,2.01694 1.37519,2.01694 l 1.46687,1.37519 1.00847,0.4584 h 1.37519 l 2.10862,-0.27504 c 0,0 1.46687,0 1.92526,0 0.4584,0 2.75038,0 2.75038,0 h 2.38366 c 0,0 1.28351,0.64175 1.28351,0 0,-0.64176 0.64175,-2.10862 0.64175,-2.10862 l 2.47534,-1.28351 h 1.83359 l 4.12556,-0.18336 h 2.56702 l 2.01694,-0.91679 4.4006,-4.76732 6.87594,-6.05083 1.65023,-2.01694 0.82511,-2.84206 -0.18336,-1.37519 -1.19183,-1.55854 -12.37669,-12.46838 -1.83358,-1.55854 -1.10015,-0.4584 z"
           id="path15" /></g></g></g></svg>
